<?xml version="1.0" standalone="no"?>
<!DOCTYPE svg PUBLIC "-//W3C//DTD SVG 1.1//EN" "http://www.w3.org/Graphics/SVG/1.1/DTD/svg11.dtd" >
<svg xmlns="http://www.w3.org/2000/svg">
<metadata></metadata>
<defs>
<font id="source_code_proitalic" horiz-adv-x="1228" >
<font-face units-per-em="2048" ascent="1536" descent="-512" />
<missing-glyph horiz-adv-x="500" />
<glyph horiz-adv-x="0" />
<glyph horiz-adv-x="682" />
<glyph unicode=" " />
<glyph unicode="!" d="M375 102q0 71 50 125t120 54q54 0 86.5 -35t32.5 -92q0 -72 -49 -125.5t-119 -53.5q-54 0 -87.5 35t-33.5 92zM530 475l117 705l33 194h166l-39 -194l-168 -705h-109z" />
<glyph unicode="&#x22;" d="M350 733l43 457l41 217h211l-45 -217l-143 -457h-107zM821 733l43 457l41 217h211l-45 -217l-143 -457h-107z" />
<glyph unicode="#" d="M131 420l29 104h164l100 324h-172l29 104h176l118 379h105l-119 -379h291l117 379h104l-117 -379h168l-30 -104h-170l-99 -324h179l-29 -104h-182l-129 -420h-105l129 420h-293l-131 -420h-104l131 420h-160zM428 524h293l98 324h-291z" />
<glyph unicode="$" d="M115 279l100 94q67 -78 150.5 -126t203.5 -48t192.5 49t72.5 139q0 26 -7 48.5t-26 43t-36 36t-52.5 36t-60 33.5t-72.5 37q-73 36 -120 65.5t-88.5 69t-61 88t-19.5 108.5q0 105 51.5 177t135.5 104.5t194 32.5l51 266h115l-56 -279q91 -20 167.5 -73t121.5 -113 l-98 -86q-128 156 -303 156q-102 0 -165 -42.5t-63 -123.5q0 -69 53 -118.5t179 -109.5q43 -21 72 -36t65 -36.5t59 -40.5t47.5 -44.5t38 -52t22.5 -60t9 -70.5q0 -69 -23 -125t-62.5 -94.5t-93.5 -64.5t-115 -37.5t-128 -11.5l-59 -295h-115l62 305q-204 37 -338 199z" />
<glyph unicode="%" d="M-57 147l450 390l51 -60l-428 -418zM-18 918q0 176 104 294.5t254 118.5q104 0 171 -70t67 -190q0 -176 -104.5 -295t-254.5 -119q-104 0 -170.5 70.5t-66.5 190.5zM102 928q0 -85 36 -129.5t100 -44.5q87 0 153 89t66 218q0 86 -35 130t-98 44q-88 0 -155 -89t-67 -218z M530 236q0 176 104.5 294.5t254.5 118.5q104 0 170.5 -70t66.5 -190q0 -176 -104 -295t-254 -119q-104 0 -171 70.5t-67 190.5zM651 246q0 -85 35.5 -129.5t99.5 -44.5q87 0 153.5 89t66.5 218q0 86 -35.5 130t-98.5 44q-88 0 -154.5 -89t-66.5 -218zM754 856l426 416 l75 -88l-450 -385z" />
<glyph unicode="&#x26;" d="M39 285q0 62 19 119t48 100t76 86.5t89.5 74t101.5 68.5q-41 128 -41 242q0 170 102.5 281.5t251.5 111.5q107 0 164 -60.5t57 -158.5q0 -45 -12 -88t-29 -76.5t-48.5 -70t-58 -61.5t-71 -57.5t-74 -52t-79.5 -51.5q88 -213 251 -383q144 160 250 406h146 q-135 -297 -310 -488q97 -78 218 -125l-64 -127q-140 48 -258 150q-180 -150 -395 -150q-150 0 -242 84t-92 226zM193 305q0 -95 57 -150t151 -55q134 0 279 109q-165 183 -264 407q-107 -75 -165 -147t-58 -164zM469 983q0 -82 25 -174q53 32 89.5 57t76 59t63.5 65.5 t39.5 71t15.5 81.5q0 49 -25 81.5t-75 32.5q-89 0 -149 -77.5t-60 -196.5z" />
<glyph unicode="'" d="M586 733l43 457l41 217h211l-45 -217l-144 -457h-106z" />
<glyph unicode="(" d="M403 375q0 359 175.5 647t494.5 481l74 -96q-602 -393 -602 -1028q0 -398 266 -655l-106 -84q-143 131 -222.5 321.5t-79.5 413.5z" />
<glyph unicode=")" d="M74 -283q598 389 598 1026q0 402 -264 660l100 80q144 -129 224.5 -320.5t80.5 -414.5q0 -360 -173 -648t-490 -479z" />
<glyph unicode="*" d="M207 780l45 82l313 -108l94 370h95l-49 -376l350 112l24 -86l-354 -153l158 -345l-86 -49l-195 322l-309 -307l-70 59l273 332z" />
<glyph unicode="+" d="M178 616v119h373v402h127v-402h373v-119h-373v-401h-127v401h-373z" />
<glyph unicode="," d="M193 -324q140 41 228.5 127t110.5 199q-20 -4 -30 -4q-53 0 -88 36t-35 95q0 73 53 125.5t127 52.5q65 0 102 -48t37 -136q0 -194 -134 -339.5t-349 -199.5z" />
<glyph unicode="-" d="M178 616v119h873v-119h-873z" />
<glyph unicode="." d="M360 115q0 77 54.5 135.5t130.5 58.5q59 0 94 -39.5t35 -101.5q0 -76 -54 -134.5t-131 -58.5q-58 0 -93.5 39t-35.5 101z" />
<glyph unicode="/" d="M25 -328l1026 1782h147l-1026 -1782h-147z" />
<glyph unicode="0" d="M121 479q0 122 24.5 242.5t74.5 230.5t119 194.5t166.5 134.5t209.5 50q187 0 292 -138t105 -370q0 -101 -17.5 -202t-50.5 -196t-84.5 -176.5t-116 -142.5t-148 -96t-177.5 -35q-187 0 -292 137t-105 367zM268 496q0 -187 66.5 -291.5t197.5 -104.5q80 0 150.5 43.5 t121.5 116t88 164.5t55 191t18 194q0 186 -66.5 290.5t-196.5 104.5q-99 0 -183.5 -66.5t-138 -171.5t-83 -228t-29.5 -242zM504 647q0 66 39 114t92 48q47 0 74.5 -30.5t27.5 -84.5q0 -66 -39 -114t-92 -48q-47 0 -74.5 30.5t-27.5 84.5z" />
<glyph unicode="1" d="M84 0l27 131h368l197 979h-277l21 102q215 26 332 95h120l-237 -1176h350l-27 -131h-874z" />
<glyph unicode="2" d="M76 0l14 94q361 301 482 415q205 194 265 331q33 76 33 151q0 100 -54 155.5t-163 55.5q-165 0 -329 -174l-84 94q202 209 438 209q161 0 253.5 -88t92.5 -237q0 -82 -36 -167t-76.5 -148.5t-152 -174.5t-177.5 -170t-240 -210q-7 -6 -10 -9q96 8 246 8h438l-25 -135 h-915z" />
<glyph unicode="3" d="M61 197l103 84q132 -175 344 -175q142 0 235 70.5t93 192.5q0 118 -96.5 181t-315.5 66l20 119q232 0 342.5 76t110.5 201q0 90 -62 140t-165 50q-160 0 -312 -125l-75 99q187 155 411 155q162 0 262.5 -78t100.5 -213q0 -285 -340 -364v-6q135 -32 204.5 -108t69.5 -187 q0 -189 -135.5 -294.5t-349.5 -105.5q-146 0 -258 60.5t-187 161.5z" />
<glyph unicode="4" d="M41 365l20 104l828 838h168l-162 -815h205l-27 -127h-205l-71 -365h-146l72 365h-682zM250 492h498l83 426q20 94 54 227h-6q-113 -134 -166 -191z" />
<glyph unicode="5" d="M47 197l103 86q133 -177 352 -177q70 0 134.5 22.5t115.5 65t81.5 109t30.5 148.5q0 123 -67.5 187t-190.5 64q-83 0 -147 -20t-156 -66l-72 56l154 635h717l-25 -136h-579l-103 -409q74 30 132 45.5t132 15.5q164 0 263.5 -86t99.5 -260q0 -115 -43 -211.5t-115.5 -159 t-167 -97t-198.5 -34.5q-146 0 -261.5 61t-189.5 161z" />
<glyph unicode="6" d="M133 449q0 170 36 314.5t99 248t147.5 176t181.5 108t202 35.5q113 0 201.5 -47.5t140.5 -126.5l-103 -84q-94 127 -250 127q-66 0 -129.5 -21.5t-124 -68.5t-109.5 -115t-84.5 -166.5t-49.5 -216.5q73 89 179.5 144t221.5 55q150 0 249 -86t99 -258q0 -134 -62 -246.5 t-173 -179t-246 -66.5q-189 0 -307.5 129.5t-118.5 344.5zM281 444q0 -163 80 -254.5t208 -91.5q141 0 233.5 106t92.5 245q0 122 -68.5 184.5t-171.5 62.5q-203 0 -374 -207v-45z" />
<glyph unicode="7" d="M233 1171l27 136h924l-21 -101q-159 -149 -266.5 -279.5t-184.5 -276.5t-126.5 -292t-100.5 -358h-170q95 394 240.5 655.5t411.5 515.5h-734z" />
<glyph unicode="8" d="M129 305q0 141 84 236t240 161v9q-70 68 -104 130.5t-34 141.5q0 161 117.5 254.5t296.5 93.5q153 0 254.5 -78t101.5 -219q0 -244 -262 -377v-8q35 -24 61.5 -47t58.5 -59.5t49.5 -84.5t17.5 -102q0 -175 -130.5 -278t-338.5 -103q-183 0 -297.5 87t-114.5 243zM270 332 q0 -113 81.5 -175.5t197.5 -62.5q86 0 155.5 26t114.5 82t45 134q0 40 -17 76t-41.5 63t-67 56.5t-78.5 49.5t-90 49q-27 14 -40 21q-127 -65 -193.5 -140.5t-66.5 -178.5zM457 993q0 -49 22 -92.5t62.5 -79t86 -63.5t105.5 -56q99 53 157 133t58 175t-65 148.5t-166 53.5 q-109 0 -184.5 -58.5t-75.5 -160.5z" />
<glyph unicode="9" d="M90 150l105 83q48 -67 108.5 -97t140.5 -30q82 0 160.5 35.5t147.5 104.5t119.5 183.5t68.5 260.5q-75 -87 -181.5 -140.5t-219.5 -53.5q-71 0 -132 20t-110.5 60t-78 108t-28.5 156q0 204 138.5 347.5t343.5 143.5q190 0 308 -129t118 -344q0 -170 -36 -314.5 t-98.5 -248t-146.5 -176.5t-181 -108.5t-202 -35.5q-113 0 -201.5 48t-142.5 127zM336 858q0 -122 68 -185t171 -63q207 0 375 207v45q0 163 -79.5 254.5t-206.5 91.5q-95 0 -171.5 -50.5t-116.5 -130t-40 -169.5z" />
<glyph unicode=":" d="M360 115q0 77 54.5 135.5t130.5 58.5q59 0 94 -39.5t35 -101.5q0 -76 -54 -134.5t-131 -58.5q-58 0 -93.5 39t-35.5 101zM504 848q0 77 54 135.5t130 58.5q59 0 94 -39.5t35 -101.5q0 -76 -53.5 -134t-130.5 -58q-58 0 -93.5 38.5t-35.5 100.5z" />
<glyph unicode=";" d="M193 -324q140 41 228.5 127t110.5 199q-20 -4 -30 -4q-53 0 -88 36t-35 95q0 73 53 125.5t127 52.5q65 0 102 -48t37 -136q0 -194 -134 -339.5t-349 -199.5zM504 848q0 77 54 135.5t130 58.5q59 0 94 -39.5t35 -101.5q0 -76 -53.5 -134t-130.5 -58q-58 0 -93.5 38.5 t-35.5 100.5z" />
<glyph unicode="&#x3c;" d="M248 618v123l762 519v-156l-625 -420v-8l625 -420v-156z" />
<glyph unicode="=" d="M178 397v119h873v-119h-873zM178 836v118h873v-118h-873z" />
<glyph unicode="&#x3e;" d="M219 100v156l625 420v8l-625 420v156l762 -519v-123z" />
<glyph unicode="?" d="M336 102q0 71 50 125t120 54q54 0 86.5 -35t32.5 -92q0 -72 -49 -125.5t-119 -53.5q-54 0 -87.5 35t-33.5 92zM356 1204q162 193 394 193q144 0 228.5 -70t84.5 -188q0 -60 -17 -109.5t-60.5 -98t-69 -70t-91.5 -72.5q-5 -4 -8 -6.5t-7.5 -6t-8.5 -6.5 q-100 -82 -131 -116q-69 -79 -74 -179h-133q1 52 16.5 100.5t36 82.5t58.5 73t64.5 61t72.5 58q100 79 126 107q68 70 68 149q0 72 -46 116t-136 44q-84 0 -149 -35t-130 -107z" />
<glyph unicode="@" d="M53 307q0 221 62 410t166 315t240 197t284 71q185 0 274.5 -87t89.5 -250q0 -67 -16 -152l-121 -606h-92l10 121h-8q-139 -146 -291 -146q-98 0 -163.5 56t-65.5 155q0 173 149 268.5t465 131.5q23 101 23 153q0 121 -62 186.5t-204 65.5q-113 0 -223.5 -62.5 t-198.5 -173t-142.5 -277t-54.5 -359.5q0 -241 109 -376.5t292 -135.5q139 0 275 98l51 -90q-152 -115 -342 -115q-232 0 -369 158t-137 444zM547 418q0 -64 40.5 -97.5t104.5 -33.5q117 0 264 141l56 268q-244 -35 -354.5 -102t-110.5 -176z" />
<glyph unicode="A" d="M-47 0l729 1343h182l166 -1343h-164l-41 420h-483l-215 -420h-174zM406 543h407l-22 229q-7 72 -20.5 219t-20.5 219h-9q-63 -122 -217 -434z" />
<glyph unicode="B" d="M84 0l270 1343h348q202 0 310 -75.5t108 -220.5q0 -87 -45 -159.5t-111.5 -116t-144.5 -60.5v-9q111 -27 178.5 -95t67.5 -177t-42 -192.5t-118 -135t-176 -77t-221 -25.5h-424zM270 135h226q200 0 306.5 68t106.5 219q0 102 -79.5 159.5t-227.5 57.5h-229zM397 774h185 q186 0 280 66.5t94 183.5q0 94 -68 139t-224 45h-177z" />
<glyph unicode="C" d="M158 518q0 158 51 310.5t139.5 272.5t220.5 193.5t283 73.5q216 0 332 -199l-113 -84q-86 146 -227 146q-93 0 -176.5 -41t-145.5 -111t-108 -160t-69 -189.5t-23 -197.5q0 -193 84.5 -306t257.5 -113q141 0 284 120l74 -102q-181 -156 -387 -156q-226 0 -351.5 148 t-125.5 395z" />
<glyph unicode="D" d="M45 0l268 1343h269q272 0 415.5 -136t143.5 -388q0 -244 -86.5 -428t-253 -287.5t-393.5 -103.5h-363zM229 131h179q264 0 416.5 183t152.5 495q0 195 -103.5 300t-298.5 105h-129z" />
<glyph unicode="E" d="M123 0l270 1343h826l-27 -133h-670l-86 -436h559l-26 -135h-557l-105 -504h688l-26 -135h-846z" />
<glyph unicode="F" d="M162 0l268 1343h817l-28 -133h-658l-92 -467h549l-29 -135h-545l-122 -608h-160z" />
<glyph unicode="G" d="M125 518q0 128 31.5 252t93 231.5t145 189.5t196.5 129.5t240 47.5q220 0 338 -199l-112 -84q-87 146 -236 146q-96 0 -182 -41.5t-149 -111t-109 -159.5t-69 -189.5t-23 -197.5q0 -93 19.5 -167.5t59.5 -132.5t108.5 -89.5t160.5 -31.5q132 0 229 82l74 370h-276l26 131 h422l-117 -581q-165 -138 -381 -138q-235 0 -362 146t-127 397z" />
<glyph unicode="H" d="M37 0l268 1343h160l-115 -567h582l112 567h160l-268 -1343h-160l129 639h-581l-127 -639h-160z" />
<glyph unicode="I" d="M72 0l28 135h332l215 1075h-336l31 133h832l-29 -133h-338l-217 -1075h340l-31 -135h-827z" />
<glyph unicode="J" d="M47 184l107 95q105 -166 280 -166q141 0 221.5 85.5t116.5 266.5l150 745h-564l27 133h721l-182 -911q-46 -225 -166 -341t-330 -116q-130 0 -227 58t-154 151z" />
<glyph unicode="K" d="M86 0l268 1343h160l-141 -690h8l704 690h181l-557 -542l354 -801h-178l-295 684l-258 -250l-88 -434h-158z" />
<glyph unicode="L" d="M203 0l268 1343h160l-242 -1208h666l-27 -135h-825z" />
<glyph unicode="M" d="M31 0l268 1343h193l77 -608l13 -198h8l90 196l336 610h190l-266 -1343h-149l159 791q16 81 101 372h-9q-131 -256 -133 -260l-286 -538h-131l-70 528q-2 17 -13.5 130.5t-15.5 139.5h-8q-27 -269 -45 -356l-164 -807h-145z" />
<glyph unicode="N" d="M51 0l268 1343h162l275 -864l75 -276h9q33 277 61 413l143 727h152l-268 -1343h-160l-276 864l-76 279h-8q-40 -301 -64 -424l-141 -719h-152z" />
<glyph unicode="O" d="M84 506q0 161 45.5 315t126.5 276t204 196.5t267 74.5q203 0 318.5 -144t115.5 -386q0 -106 -20 -211.5t-57.5 -201.5t-94.5 -178.5t-126.5 -142.5t-157.5 -94.5t-185 -34.5q-203 0 -319.5 145t-116.5 386zM246 500q0 -183 73 -285t216 -102q106 0 195.5 65t147 170.5 t89.5 235t32 262.5q0 182 -71.5 283.5t-214.5 101.5q-106 0 -196 -65t-148 -170t-90.5 -234.5t-32.5 -261.5z" />
<glyph unicode="P" d="M106 0l269 1343h375q200 0 312 -79.5t112 -247.5q0 -121 -43 -213t-122 -148.5t-184.5 -85t-236.5 -28.5h-215l-109 -541h-158zM399 670h189q210 0 318 82t108 243q0 115 -76 168.5t-229 53.5h-203z" />
<glyph unicode="Q" d="M84 506q0 161 45.5 315t126.5 276t204 196.5t267 74.5q203 0 318.5 -144t115.5 -386q0 -152 -40.5 -298.5t-113.5 -266t-184.5 -199t-242.5 -94.5q26 -89 91.5 -136t159.5 -47q91 0 164 27l29 -125q-86 -35 -209 -35q-146 0 -249.5 80.5t-143.5 241.5q-160 33 -249 172 t-89 348zM246 500q0 -187 73 -290.5t218 -103.5q105 0 194 65.5t146.5 171.5t89.5 237t32 266q0 182 -71.5 283.5t-214.5 101.5q-106 0 -196 -65t-148 -170t-90.5 -234.5t-32.5 -261.5z" />
<glyph unicode="R" d="M72 0l268 1343h362q131 0 223 -30.5t146.5 -103t54.5 -183.5q0 -177 -110 -292t-287 -150l240 -584h-176l-222 569h-227l-115 -569h-157zM371 698h194q190 0 295 84t105 228q0 109 -73.5 158t-225.5 49h-195z" />
<glyph unicode="S" d="M76 217l108 88q128 -192 351 -192q129 0 211.5 68t82.5 181q0 72 -42 125t-123 101l-156 92q-217 132 -217 328q0 155 116 257.5t295 102.5q125 0 230 -55.5t168 -143.5l-107 -88q-122 152 -299 152q-105 0 -173 -63t-68 -150q0 -71 41.5 -121t115.5 -92l162 -96 q107 -67 163 -144t56 -190q0 -184 -129.5 -293t-326.5 -109q-156 0 -271.5 63.5t-187.5 178.5z" />
<glyph unicode="T" d="M201 1206l26 137h1053l-29 -137h-446l-240 -1206h-159l241 1206h-446z" />
<glyph unicode="U" d="M131 381q0 85 21 190l153 772h160l-154 -776q-22 -99 -22 -168q0 -138 64.5 -212t189.5 -74q263 0 342 403l164 827h155l-168 -843q-56 -280 -187 -402.5t-327 -122.5q-187 0 -289 108t-102 298z" />
<glyph unicode="V" d="M250 1343h164l63 -745q6 -76 17.5 -224.5t17.5 -217.5h8q138 286 219 442l381 745h174l-719 -1343h-190z" />
<glyph unicode="W" d="M111 0l82 1346h151l-70 -928q-15 -182 -30 -281h8q10 30 55.5 142.5t59.5 142.5l243 549h135l39 -459q23 -269 25 -367h12q35 169 68 283l274 918h152l-418 -1346h-197l-36 545q-13 173 -13 256h-10q-45 -149 -92 -256l-234 -545h-204z" />
<glyph unicode="X" d="M-8 0l534 705l-260 641h172l140 -353q25 -63 67 -202h8q99 152 133 200l271 355h176l-514 -666l278 -680h-172l-147 373q-29 67 -76 207h-8q-134 -194 -145 -209l-281 -371h-176z" />
<glyph unicode="Y" d="M223 1346h164l125 -414q58 -195 92 -334h8q100 166 215 334l287 414h168l-625 -893l-92 -453h-157l96 469z" />
<glyph unicode="Z" d="M35 0l18 94l908 1118h-701l27 134h913l-20 -97l-908 -1116h748l-29 -133h-956z" />
<glyph unicode="[" d="M260 -311l354 1761h555l-16 -92h-436l-316 -1577h435l-17 -92h-559z" />
<glyph unicode="\" d="M391 1454h129l314 -1782h-129z" />
<glyph unicode="]" d="M31 -311l18 92h436l314 1577h-434l18 92h557l-352 -1761h-557z" />
<glyph unicode="^" d="M231 584l314 788h139l313 -788h-139l-139 368l-101 271h-8l-100 -271l-139 -368h-140z" />
<glyph unicode="_" d="M-57 -281l26 136h983l-26 -136h-983z" />
<glyph unicode="`" d="M526 1503l136 101l233 -363l-98 -74z" />
<glyph unicode="a" d="M106 356q0 176 73 328.5t199.5 244t274.5 91.5q103 0 183 -40.5t122 -109.5h9l39 125h127l-199 -995h-129l16 152h-8q-80 -82 -175.5 -129.5t-188.5 -47.5q-158 0 -250.5 99t-92.5 282zM268 381q0 -137 60.5 -206t167.5 -69q82 0 171.5 50t170.5 143l92 442 q-97 148 -256 148q-111 0 -205 -71.5t-147.5 -188t-53.5 -248.5z" />
<glyph unicode="b" d="M74 0l291 1458h157l-80 -389l-53 -219h6q82 75 177 122.5t186 47.5q160 0 251 -103t91 -292q0 -133 -42 -253t-114.5 -207t-174.5 -138.5t-216 -51.5q-96 0 -177 41t-128 109h-6l-37 -125h-131zM281 250q97 -144 256 -144q112 0 204.5 68t144.5 181.5t52 246.5 q0 142 -61.5 214.5t-169.5 72.5q-76 0 -167.5 -52t-168.5 -141z" />
<glyph unicode="c" d="M137 414q0 132 50 247t133 192.5t192 122t225 44.5q122 0 219 -50t156 -128l-100 -90q-110 137 -295 137q-103 0 -200 -60.5t-159.5 -167t-62.5 -229.5q0 -159 88.5 -242.5t232.5 -83.5q159 0 318 138l63 -107q-80 -74 -185.5 -118t-215.5 -44q-203 0 -331 114t-128 325z " />
<glyph unicode="d" d="M106 356q0 176 73 328.5t199.5 244t274.5 91.5q103 0 180 -39t121 -107h7l32 195l78 389h158l-295 -1458h-129l16 152h-8q-80 -82 -176.5 -129.5t-190.5 -47.5q-157 0 -248.5 99t-91.5 282zM268 381q0 -136 60.5 -205.5t167.5 -69.5q82 0 171.5 50t170.5 143l90 442 q-97 148 -254 148q-111 0 -205 -71.5t-147.5 -188t-53.5 -248.5z" />
<glyph unicode="e" d="M129 406q0 131 46.5 246.5t124 195.5t181 126t215.5 46q179 0 279 -106.5t100 -276.5q0 -48 -8.5 -101t-17.5 -77h-762q-2 -14 -2 -45q0 -149 81 -231.5t218 -82.5q180 0 340 129l59 -106q-81 -65 -194 -106.5t-236 -41.5q-197 0 -310.5 112.5t-113.5 318.5zM311 582h611 q6 30 6 61q0 117 -64.5 184.5t-175.5 67.5q-118 0 -225 -86t-152 -227z" />
<glyph unicode="f" d="M236 868l22 117l289 10l22 111q76 377 432 377q169 0 289 -101l-76 -100q-96 74 -208 74q-229 0 -281 -256l-20 -105h417l-26 -127h-418l-174 -868h-158l176 868h-286z" />
<glyph unicode="g" d="M33 -322l73 113q59 -51 140.5 -78.5t167.5 -27.5q139 0 235 66.5t127 205.5l45 211h-8q-74 -73 -167.5 -116.5t-186.5 -43.5q-160 0 -253 98t-93 275q0 172 72.5 319.5t197 233.5t270.5 86q103 0 183 -40.5t122 -109.5h9l41 125h125l-209 -1046q-27 -135 -102 -225 t-178 -129t-232 -39q-226 0 -379 122zM274 406q0 -133 60.5 -200t171.5 -67q82 0 168 45.5t164 130.5l90 424q-101 150 -256 150q-105 0 -197.5 -66.5t-146.5 -178t-54 -238.5z" />
<glyph unicode="h" d="M74 0l291 1458h157l-108 -536l-33 -125h8q107 104 213 163.5t227 59.5q128 0 192 -66t64 -182q0 -65 -18 -164l-123 -608h-158l119 592q19 81 19 139q0 74 -41 114t-117 40q-190 0 -408 -242l-129 -643h-155z" />
<glyph unicode="i" d="M213 868l27 127h520l-150 -676q-8 -50 -8 -65q0 -75 41.5 -111.5t112.5 -36.5q72 0 190 54l37 -119q-142 -66 -272 -66q-122 0 -195.5 65t-73.5 185q0 43 17 109l119 534h-365zM584 1315q0 58 42 99.5t99 41.5q55 0 87 -28t32 -80q0 -59 -42.5 -100.5t-101.5 -41.5 q-51 0 -83.5 29t-32.5 80z" />
<glyph unicode="j" d="M-37 -354l68 112q100 -73 217 -73q129 0 199.5 72.5t99.5 213.5l180 897h-459l29 127h612l-204 -1026q-43 -207 -150 -310t-305 -103q-86 0 -161 26.5t-126 63.5zM733 1315q0 58 42 99.5t99 41.5q55 0 87 -28t32 -80q0 -60 -42 -101t-101 -41q-51 0 -84 29t-33 80z" />
<glyph unicode="k" d="M100 0l293 1458h156l-199 -991h8l650 528h190l-467 -397l311 -598h-163l-263 506l-305 -244l-53 -262h-158z" />
<glyph unicode="l" d="M289 1331l26 127h486l-234 -1114q-10 -52 -10 -90q0 -74 40.5 -111t111.5 -37q85 0 194 56l39 -121q-135 -66 -276 -66q-119 0 -193 69t-74 196q0 46 15 110l207 981h-332z" />
<glyph unicode="m" d="M0 0l199 995h120l-14 -135h6q128 160 269 160q143 0 149 -162q130 162 279 162q74 0 114.5 -43.5t40.5 -130.5q0 -54 -12 -113l-147 -733h-156l143 713q8 44 8 78q0 94 -69 94q-52 0 -101 -39.5t-106 -124.5l-145 -721h-152l147 713q9 49 9 78q0 94 -72 94 q-55 0 -103 -39t-110 -125l-141 -721h-156z" />
<glyph unicode="n" d="M74 0l198 995h127l-24 -202h8q227 227 446 227q128 0 192 -66t64 -182q0 -65 -18 -164l-123 -608h-158l119 592q19 81 19 139q0 74 -41 114t-117 40q-190 0 -408 -242l-129 -643h-155z" />
<glyph unicode="o" d="M94 412q0 127 47 241t125.5 194t183.5 126.5t218 46.5q192 0 303.5 -120t111.5 -316q0 -127 -47 -241.5t-125 -194.5t-182.5 -126.5t-216.5 -46.5q-194 0 -306 120.5t-112 316.5zM254 422q0 -146 71.5 -231t196.5 -85q160 0 282 138t122 329q0 147 -72 231.5t-199 84.5 q-160 0 -280.5 -138t-120.5 -329z" />
<glyph unicode="p" d="M-10 -420l282 1415h129l-16 -153h6q193 178 369 178q157 0 248.5 -103.5t91.5 -291.5q0 -179 -68 -327t-194 -235.5t-285 -87.5q-92 0 -172 39.5t-129 104.5h-6l-37 -213l-64 -326h-155zM281 250q97 -144 262 -144q111 0 202 68t142 181.5t51 246.5q0 142 -61.5 214.5 t-169.5 72.5q-76 0 -166.5 -51.5t-169.5 -141.5z" />
<glyph unicode="q" d="M106 356q0 176 73 328.5t199.5 244t274.5 91.5q103 0 183 -40.5t122 -109.5h9l41 125h125l-283 -1415h-156l68 330q1 2 9 38.5t17 74t19 76.5t16 53h-8q-80 -81 -178 -129t-191 -48q-157 0 -248.5 99t-91.5 282zM268 381q0 -136 60.5 -205.5t167.5 -69.5q82 0 171.5 50 t170.5 143l90 442q-97 148 -254 148q-111 0 -205 -71.5t-147.5 -188t-53.5 -248.5z" />
<glyph unicode="r" d="M199 0l198 995h129l-43 -284h9q90 137 206 223t238 86q128 0 201 -51l-62 -135q-66 43 -166 43q-111 0 -226.5 -96t-223.5 -263l-105 -518h-155z" />
<glyph unicode="s" d="M113 158l90 100q141 -160 379 -160q110 0 175.5 39t65.5 119q0 66 -59.5 104.5t-202.5 85.5q-157 53 -228 121t-71 170q0 136 106 209.5t267 73.5q133 0 239.5 -46t176.5 -116l-88 -96q-158 135 -345 135q-97 0 -151.5 -37.5t-54.5 -103.5q0 -65 56.5 -104.5t188.5 -84.5 q62 -21 105 -39t85.5 -43.5t68.5 -54t41.5 -68t15.5 -86.5q0 -78 -32.5 -137t-90.5 -94.5t-132.5 -52.5t-164.5 -17q-129 0 -248.5 50t-191.5 133z" />
<glyph unicode="t" d="M152 868l22 117l299 10l86 320h129l-65 -320h491l-27 -127h-491l-100 -483q-11 -51 -11 -92q0 -92 49 -139.5t136 -47.5q125 0 258 72l51 -112q-148 -91 -350 -91q-152 0 -227.5 76t-75.5 209q0 35 16 129l98 479h-288z" />
<glyph unicode="u" d="M115 223q0 65 18 164l123 608h156l-119 -592q-19 -97 -19 -139q0 -74 41 -113.5t117 -39.5q192 0 406 241l129 643h157l-198 -995h-129l26 203h-8q-108 -105 -215 -166.5t-227 -61.5q-130 0 -194 65.5t-64 182.5z" />
<glyph unicode="v" d="M178 995h156l125 -579q10 -46 28.5 -145t28.5 -148h8q53 106 166 295l342 577h160l-604 -995h-185z" />
<glyph unicode="w" d="M94 995h156l6 -587q0 -85 -4 -273h8q87 234 105 275l229 532h160l20 -532q2 -2 2 -63v-75q-2 -135 -2 -137h8q20 51 53.5 141t49.5 132l237 587h152l-416 -995h-199l-12 512q-1 2 -1 60v72q0 129 1 138h-8q-75 -216 -98 -270l-217 -512h-205z" />
<glyph unicode="x" d="M20 0l480 518l-256 477h164l118 -227q70 -140 80 -170h8q6 9 68.5 87t65.5 83l202 227h185l-457 -491l285 -504h-168l-131 240q-4 9 -46.5 88.5t-44.5 83.5h-10q-8 -14 -71.5 -88t-65.5 -76l-221 -248h-185z" />
<glyph unicode="y" d="M-90 -391l49 112q58 -28 119 -28q90 0 151.5 45t135.5 160l61 98l-248 999h152l131 -557q39 -192 59 -303h8q69 133 168 303l334 557h164l-678 -1101q-105 -173 -203.5 -247.5t-244.5 -74.5q-97 0 -158 37z" />
<glyph unicode="z" d="M70 0l16 94l778 776h-633l27 125h840l-17 -94l-776 -774h670l-27 -127h-878z" />
<glyph unicode="{" d="M227 518l25 103q90 0 154.5 13.5t99 38.5t51 50.5t23.5 58.5q13 64 30.5 192.5t32.5 199.5q32 152 116.5 214t225.5 62h209l-18 -92h-170q-92 0 -155 -48.5t-83 -144.5q-12 -62 -31 -186.5t-30 -181.5q-22 -102 -72 -158.5t-139 -71.5v-8q65 -10 96 -49t31 -96 q0 -68 -52.5 -260.5t-52.5 -251.5q0 -121 178 -121h166l-20 -92h-207q-119 0 -183.5 45.5t-64.5 138.5q0 74 56.5 266t56.5 244q0 29 -10 50.5t-37.5 42t-84 31.5t-141.5 11z" />
<glyph unicode="|" d="M543 -512v2048h143v-2048h-143z" />
<glyph unicode="}" d="M18 -311l19 92h170q92 0 154.5 48t82.5 144q14 65 33.5 192.5t28.5 176.5q22 102 72 158t139 71l2 9q-66 10 -97.5 49.5t-31.5 95.5q0 68 52 260.5t52 251.5q0 121 -178 121h-166l21 92h207q247 0 247 -184q0 -74 -56 -266t-56 -244q0 -29 10.5 -50.5t37.5 -42 t83.5 -31.5t140.5 -11l-24 -103q-90 0 -154.5 -13.5t-99 -38.5t-51 -51t-23.5 -59q-13 -64 -31 -192t-33 -199q-32 -152 -116.5 -214t-225.5 -62h-209z" />
<glyph unicode="~" d="M160 569q92 254 274 254q45 0 88 -18t77.5 -43.5t66.5 -51t66.5 -43.5t66.5 -18q54 0 94 37t74 139l102 -45q-93 -252 -274 -252q-45 0 -88 18t-77.5 43.5t-66.5 51t-66.5 43.5t-66.5 18q-52 0 -93 -38t-75 -138z" />
<glyph unicode="&#xa0;" />
<glyph unicode="&#xa1;" d="M332 -381l39 195l168 704h108l-117 -704l-32 -195h-166zM514 840q0 71 49 124.5t119 53.5q54 0 87.5 -35t33.5 -92q0 -71 -50 -124.5t-120 -53.5q-54 0 -86.5 35t-32.5 92z" />
<glyph unicode="&#xa2;" d="M203 537q0 126 41 232.5t111.5 179.5t164 118t199.5 55l45 215h96l-43 -215q150 -16 250 -135l-92 -90q-82 89 -184 96l-146 -712q119 7 248 108l63 -100q-151 -131 -338 -142l-45 -221h-100l45 224q-142 19 -228.5 122t-86.5 265zM360 555q0 -111 49 -180t138 -90 l145 704q-144 -27 -238 -147.5t-94 -286.5z" />
<glyph unicode="&#xa3;" d="M45 0l18 94q168 73 251 187.5t83 255.5q0 37 -2 55h-241l20 92l211 8q-2 21 -6.5 67.5t-7 79.5t-2.5 60q0 205 117.5 318.5t312.5 113.5q213 0 338 -182l-107 -82q-89 137 -233 137q-130 0 -205.5 -80t-75.5 -237q0 -36 14 -195h388l-21 -100h-358q2 -10 2 -33 q0 -139 -55.5 -239.5t-170.5 -176.5v-10h646l-27 -133h-889z" />
<glyph unicode="&#xa4;" d="M49 262l203 170q-35 72 -35 168q0 187 125 318l-135 169l104 91l140 -179q113 74 247 74q128 0 211 -74l209 177l78 -97l-209 -174q33 -74 33 -160q0 -91 -33 -174t-92 -145l139 -180l-102 -86l-144 188q-115 -72 -249 -72q-128 0 -207 70l-199 -174zM362 618 q0 -103 52 -163t147 -60q124 0 218.5 96t94.5 240q0 104 -52.5 165.5t-143.5 61.5q-124 0 -220 -99t-96 -241z" />
<glyph unicode="&#xa5;" d="M102 326l21 84h371l28 143h-375l21 84h334l-248 670h158l120 -361q54 -156 89 -284h6q96 150 190 284l264 361h168l-514 -670h338l-18 -84h-377l-29 -143h381l-20 -84h-375l-64 -326h-157l63 326h-375z" />
<glyph unicode="&#xa6;" d="M543 389h143v-901h-143v901zM543 635v901h143v-901h-143z" />
<glyph unicode="&#xa7;" d="M133 45l86 98q122 -139 262 -139q82 0 137.5 44t55.5 114q0 25 -6.5 47t-25 43t-31.5 34.5t-46.5 34t-48.5 29t-57 31.5q-116 64 -176 134.5t-60 174.5q0 103 62.5 176.5t165.5 118.5q-37 60 -37 137q0 123 88 201t223 78q165 0 305 -158l-94 -86q-99 121 -215 121 q-71 0 -116.5 -37.5t-45.5 -105.5q0 -28 10.5 -53t23.5 -42.5t44.5 -41t50.5 -36t66 -40.5q46 -28 75.5 -48t67 -52t59 -63t37 -74t15.5 -91q0 -112 -56 -180.5t-164 -116.5q29 -56 29 -119q0 -135 -95 -216t-243 -81q-195 0 -346 164zM362 715q0 -70 43 -117.5t144 -103.5 q5 -3 34.5 -21t39.5 -24t31.5 -20t36.5 -25t28 -23q73 28 110 71.5t37 116.5q0 41 -14 75t-44 63.5t-59 50.5t-75 49q-118 71 -154 100q-158 -70 -158 -192z" />
<glyph unicode="&#xa8;" d="M459 1296q0 52 32.5 87.5t81.5 35.5q39 0 64 -25t25 -67q0 -51 -33 -86t-82 -35q-39 0 -63.5 24t-24.5 66zM840 1296q0 52 32.5 87.5t81.5 35.5q39 0 63.5 -25t24.5 -67q0 -51 -33.5 -86t-80.5 -35q-39 0 -63.5 24t-24.5 66z" />
<glyph unicode="&#xa9;" d="M51 504q0 181 55 337.5t149.5 265.5t225 170t277.5 60q197 0 314.5 -140.5t117.5 -377.5q0 -241 -91.5 -433.5t-253.5 -300.5t-364 -108q-197 0 -313.5 143t-116.5 384zM143 512q0 -208 94 -329.5t261 -121.5q166 0 303.5 98t217 269.5t79.5 380.5q0 205 -95 325.5 t-264 120.5q-165 0 -301.5 -95.5t-215.5 -266.5t-79 -381zM315 573q0 108 35 200t93 152t132.5 94t153.5 34q129 0 203 -113l-76 -66q-30 41 -61 58.5t-76 17.5q-109 0 -193 -107t-84 -263q0 -98 40 -152.5t114 -54.5q53 -1 95 18.5t87 59.5l51 -82q-117 -105 -256 -105 q-118 0 -188 82.5t-70 226.5z" />
<glyph unicode="&#xaa;" d="M362 1051q0 97 32 179.5t85 137t121.5 85t142.5 30.5q103 0 183 -80h4l22 63h99l-131 -657h-103l6 78h-4q-116 -94 -239 -94q-102 0 -160 66.5t-58 191.5zM489 1069q0 -84 38 -130t110 -46q88 0 197 88l63 336q-69 63 -154 63q-101 0 -177.5 -88t-76.5 -223z" />
<glyph unicode="&#xab;" d="M143 455l25 131l377 334l61 -70l-309 -344l176 -338l-86 -62zM614 455l25 131l377 334l61 -70l-309 -344l176 -338l-86 -62z" />
<glyph unicode="&#xac;" d="M178 616v119h873v-520h-127v401h-746z" />
<glyph unicode="&#xad;" d="M178 616v119h873v-119h-873z" />
<glyph unicode="&#xae;" d="M324 983q0 206 135 341.5t338 135.5q136 0 223.5 -91.5t87.5 -238.5q0 -207 -132 -341t-339 -134q-138 0 -225.5 91t-87.5 237zM399 993q0 -124 68.5 -196t183.5 -72q161 0 270 113t109 282q0 126 -68 199.5t-180 73.5q-159 0 -271 -116t-112 -284zM528 854l82 418h154 q135 0 135 -117q0 -51 -29 -88.5t-82 -54.5l70 -158h-86l-59 145h-11h-65l-29 -145h-80zM649 1059h56q51 0 79.5 23.5t28.5 66.5q0 59 -74 59h-61z" />
<glyph unicode="&#xaf;" d="M473 1231l21 110h522l-21 -110h-522z" />
<glyph unicode="&#xb0;" d="M453 1096q0 137 90.5 222t218.5 85q94 0 151.5 -57.5t57.5 -155.5q0 -136 -89 -220.5t-220 -84.5q-90 0 -149.5 57.5t-59.5 153.5zM553 1110q0 -61 33 -99t92 -38q82 0 138 60.5t56 146.5q0 63 -32 100t-92 37q-82 0 -138.5 -60.5t-56.5 -146.5z" />
<glyph unicode="&#xb1;" d="M178 0v121h873v-121h-873zM178 625v118h373v394h127v-394h373v-118h-373v-369h-127v369h-373z" />
<glyph unicode="&#xb2;" d="M373 809l14 78q262 183 367.5 293.5t105.5 218.5q0 60 -33 93.5t-98 33.5q-74 0 -166 -96l-71 73q64 62 124.5 95.5t131.5 33.5q109 0 173 -58.5t64 -156.5q0 -63 -24 -121.5t-77.5 -120.5t-122.5 -122t-175 -140h334l-21 -104h-526z" />
<glyph unicode="&#xb3;" d="M371 948l86 58q67 -121 184 -121q75 0 124.5 39t49.5 106q0 66 -54.5 107t-164.5 41l18 84q126 0 185 46t59 111q0 52 -33 82.5t-92 30.5q-83 0 -170 -66l-53 84q115 82 246 82q101 0 164 -53t63 -143q0 -75 -49.5 -134.5t-136.5 -87.5q66 -25 102.5 -75t36.5 -105 q0 -116 -83.5 -183t-205.5 -67q-94 0 -165 46t-111 118z" />
<glyph unicode="&#xb4;" d="M600 1278l344 313l96 -123l-368 -282z" />
<glyph unicode="&#xb5;" d="M-20 -383l276 1378h156l-123 -598q-30 -143 4.5 -214.5t144.5 -71.5q186 0 398 235l131 649h155q-176 -807 -176 -839q0 -52 45 -52q15 0 37 5l-2 -119q-47 -15 -94 -15q-78 0 -103 53t-8 175h-8q-95 -105 -192.5 -164t-210.5 -59q-72 0 -119.5 24t-73.5 90 q-6 -33 -18.5 -96t-17 -87t-13 -70t-13 -74.5t-10 -68.5t-10.5 -81h-155z" />
<glyph unicode="&#xb6;" d="M184 825q0 127 47 228.5t126.5 163.5t178.5 94t209 32h109l-178 -878h-39q-126 0 -227 40t-163.5 123t-62.5 197zM657 -164l301 1507h156l-299 -1507h-158z" />
<glyph unicode="&#xb7;" d="M434 678q0 77 54 135.5t130 58.5q59 0 94.5 -39.5t35.5 -101.5q0 -76 -54 -134t-131 -58q-58 0 -93.5 38.5t-35.5 100.5z" />
<glyph unicode="&#xb8;" d="M213 -383q236 9 242 111q2 39 -31.5 60t-110.5 28l131 198h111l-92 -147q72 -18 99 -47.5t24 -81.5q-7 -95 -106 -146.5t-265 -54.5z" />
<glyph unicode="&#xb9;" d="M362 809l19 104h250l106 535h-213l15 80q88 9 146 27t110 53h96l-139 -695h235l-20 -104h-605z" />
<glyph unicode="&#xba;" d="M375 1067q0 95 33 174.5t88 131.5t126 81t148 29q118 0 191 -74.5t73 -204.5q0 -187 -116 -299t-279 -112q-117 0 -190.5 73t-73.5 201zM500 1075q0 -85 41 -132.5t114 -47.5q108 0 180 89t72 214q0 85 -40 134.5t-111 49.5q-106 0 -181 -92t-75 -215z" />
<glyph unicode="&#xbb;" d="M76 178l309 344l-176 338l88 62l242 -349l-25 -131l-377 -333zM547 178l309 344l-176 338l88 62l242 -349l-25 -131l-377 -333z" />
<glyph unicode="&#xbc;" d="M-57 147l450 390l51 -60l-428 -418zM106 1159l17 80q108 16 203 68h98l-125 -625h-121l94 477h-166zM528 152l13 59l338 438l75 -45l-286 -368h215l32 163h107l-33 -163h101l-19 -84h-100l-31 -152h-106l30 152h-336zM754 856l426 416l75 -88l-450 -385z" />
<glyph unicode="&#xbd;" d="M-57 147l450 390l51 -60l-428 -418zM106 1159l17 80q108 16 203 68h98l-125 -625h-121l94 477h-166zM545 0l14 70q79 55 119 84t93.5 70t78.5 66t51 56.5t35.5 58.5t9.5 56q0 43 -24 65.5t-68 22.5q-88 0 -174 -90l-64 65q50 57 119 91t148 34q87 0 137.5 -44t50.5 -126 q0 -51 -21 -98.5t-67 -95.5t-98.5 -89.5t-134.5 -97.5h317l-20 -98h-502zM754 856l426 416l75 -88l-450 -385z" />
<glyph unicode="&#xbe;" d="M-57 147l450 390l51 -60l-428 -418zM-10 772l61 68q73 -92 174 -92q61 0 101.5 30t40.5 84q0 51 -44 76t-139 25l15 73q91 0 142.5 33t51.5 88q0 39 -26 59.5t-72 20.5q-80 0 -160 -70l-51 66q45 44 111.5 71t134.5 27q82 0 133 -39t51 -110q0 -66 -44 -112.5t-122 -65.5 q64 -12 99.5 -49.5t35.5 -98.5q0 -92 -74 -145.5t-184 -53.5q-143 0 -235 115zM528 152l13 59l338 438l75 -45l-286 -368h215l32 163h107l-33 -163h101l-19 -84h-100l-31 -152h-106l30 152h-336zM754 856l426 416l75 -88l-450 -385z" />
<glyph unicode="&#xbf;" d="M115 -143q0 48 14.5 92.5t32.5 75t56 68t61 56.5t72 56q17 13 26 20q100 82 131 116q70 78 74 179h133q-1 -52 -16.5 -100.5t-36 -82.5t-58.5 -73t-64.5 -61t-72.5 -58q-100 -79 -126 -106q-69 -71 -69 -150q0 -72 46.5 -115.5t136.5 -43.5q84 0 148.5 34.5t129.5 106.5 l88 -80q-161 -192 -393 -192q-144 0 -228.5 70t-84.5 188zM553 842q0 71 49 124.5t119 53.5q54 0 87.5 -35t33.5 -92q0 -71 -50 -124.5t-120 -53.5q-54 0 -86.5 35t-32.5 92z" />
<glyph unicode="&#xc0;" d="M-47 0l729 1343h182l166 -1343h-164l-41 420h-483l-215 -420h-174zM406 543h407l-22 229q-7 72 -20.5 219t-20.5 219h-9q-63 -122 -217 -434zM547 1679l112 103l250 -287l-88 -76z" />
<glyph unicode="&#xc1;" d="M-47 0l729 1343h182l166 -1343h-164l-41 420h-483l-215 -420h-174zM406 543h407l-22 229q-7 72 -20.5 219t-20.5 219h-9q-63 -122 -217 -434zM670 1530l338 237l75 -122l-352 -205z" />
<glyph unicode="&#xc2;" d="M-47 0l729 1343h182l166 -1343h-164l-41 420h-483l-215 -420h-174zM406 543h407l-22 229q-7 72 -20.5 219t-20.5 219h-9q-63 -122 -217 -434zM467 1489l266 244h178l181 -248l-78 -51l-197 198h-8l-274 -200z" />
<glyph unicode="&#xc3;" d="M-47 0l729 1343h182l166 -1343h-164l-41 420h-483l-215 -420h-174zM406 543h407l-22 229q-7 72 -20.5 219t-20.5 219h-9q-63 -122 -217 -434zM428 1470q25 119 92 185.5t160 66.5q39 0 72.5 -15t57 -37t44.5 -43.5t45 -36.5t49 -15q82 0 123 137l111 -8 q-24 -120 -91.5 -186t-160.5 -66q-38 0 -71.5 15t-57 37t-45 43.5t-45.5 36.5t-49 15q-38 0 -70.5 -35.5t-52.5 -101.5z" />
<glyph unicode="&#xc4;" d="M-47 0l729 1343h182l166 -1343h-164l-41 420h-483l-215 -420h-174zM406 543h407l-22 229q-7 72 -20.5 219t-20.5 219h-9q-63 -122 -217 -434zM518 1546q0 44 31 78.5t72 34.5q36 0 58.5 -22.5t22.5 -61.5q0 -44 -30 -77.5t-72 -33.5q-36 0 -59 22t-23 60zM899 1546 q0 45 30 79t72 34q36 0 59 -22.5t23 -61.5q0 -44 -30 -77.5t-72 -33.5q-37 0 -59.5 22t-22.5 60z" />
<glyph unicode="&#xc5;" d="M-47 0l729 1343h182l166 -1343h-164l-41 420h-483l-215 -420h-174zM406 543h407l-22 229q-7 72 -20.5 219t-20.5 219h-9q-63 -122 -217 -434zM614 1595q0 84 63.5 143.5t153.5 59.5q75 0 127 -42t52 -120q0 -86 -62.5 -144t-154.5 -58q-76 0 -127.5 41t-51.5 120z M709 1602q0 -43 23.5 -69t64.5 -26q48 0 83 35.5t35 85.5q0 44 -23 70t-65 26q-48 0 -83 -35.5t-35 -86.5z" />
<glyph unicode="&#xc6;" d="M-127 0l817 1343h639l-26 -133h-392l-88 -434h316l-27 -133h-315l-101 -508h412l-27 -135h-555l80 403h-330l-237 -403h-166zM350 528h283l137 693h-10q-72 -126 -262 -443z" />
<glyph unicode="&#xc7;" d="M158 518q0 158 51 310.5t139.5 272.5t220.5 193.5t283 73.5q216 0 332 -199l-113 -84q-86 146 -227 146q-93 0 -176.5 -41t-145.5 -111t-108 -160t-69 -189.5t-23 -197.5q0 -193 84.5 -306t257.5 -113q141 0 284 120l74 -102q-181 -156 -383 -156l-68 -108 q72 -18 99 -47.5t24 -81.5q-7 -95 -105.5 -146.5t-264.5 -54.5l-2 80q235 9 241 111q2 39 -31 60t-110 28l110 168q-179 33 -276.5 175t-97.5 359z" />
<glyph unicode="&#xc8;" d="M123 0l270 1343h826l-27 -133h-670l-86 -436h559l-26 -135h-557l-105 -504h688l-26 -135h-846zM616 1679l113 103l250 -287l-88 -76z" />
<glyph unicode="&#xc9;" d="M123 0l270 1343h826l-27 -133h-670l-86 -436h559l-26 -135h-557l-105 -504h688l-26 -135h-846zM739 1530l338 237l76 -122l-352 -205z" />
<glyph unicode="&#xca;" d="M123 0l270 1343h826l-27 -133h-670l-86 -436h559l-26 -135h-557l-105 -504h688l-26 -135h-846zM537 1489l266 244h178l180 -248l-78 -51l-196 198h-8l-275 -200z" />
<glyph unicode="&#xcb;" d="M123 0l270 1343h826l-27 -133h-670l-86 -436h559l-26 -135h-557l-105 -504h688l-26 -135h-846zM588 1546q0 45 30.5 79t71.5 34q36 0 59 -22.5t23 -61.5q0 -44 -30 -77.5t-72 -33.5q-36 0 -59 22t-23 60zM969 1546q0 45 30 79t72 34q36 0 59 -22.5t23 -61.5 q0 -44 -30 -77.5t-72 -33.5q-37 0 -59.5 22t-22.5 60z" />
<glyph unicode="&#xcc;" d="M72 0l28 135h332l215 1075h-336l31 133h832l-29 -133h-338l-217 -1075h340l-31 -135h-827zM547 1679l112 103l250 -287l-88 -76z" />
<glyph unicode="&#xcd;" d="M72 0l28 135h332l215 1075h-336l31 133h832l-29 -133h-338l-217 -1075h340l-31 -135h-827zM670 1530l338 237l75 -122l-352 -205z" />
<glyph unicode="&#xce;" d="M72 0l28 135h332l215 1075h-336l31 133h832l-29 -133h-338l-217 -1075h340l-31 -135h-827zM467 1489l266 244h178l181 -248l-78 -51l-197 198h-8l-274 -200z" />
<glyph unicode="&#xcf;" d="M72 0l28 135h332l215 1075h-336l31 133h832l-29 -133h-338l-217 -1075h340l-31 -135h-827zM518 1546q0 44 31 78.5t72 34.5q36 0 58.5 -22.5t22.5 -61.5q0 -44 -30 -77.5t-72 -33.5q-36 0 -59 22t-23 60zM899 1546q0 45 30 79t72 34q36 0 59 -22.5t23 -61.5 q0 -44 -30 -77.5t-72 -33.5q-37 0 -59.5 22t-22.5 60z" />
<glyph unicode="&#xd0;" d="M49 651l29 107l151 8l115 577h268q272 0 415.5 -136t143.5 -388q0 -244 -86.5 -428t-253 -287.5t-393.5 -103.5h-362l131 651h-158zM260 131h178q264 0 417 183t153 495q0 195 -103.5 300t-298.5 105h-129l-90 -448h297l-29 -115h-290z" />
<glyph unicode="&#xd1;" d="M51 0l268 1343h162l275 -864l75 -276h9q33 277 61 413l143 727h152l-268 -1343h-160l-276 864l-76 279h-8q-40 -301 -64 -424l-141 -719h-152zM428 1470q25 119 92 185.5t160 66.5q39 0 72.5 -15t57 -37t44.5 -43.5t45 -36.5t49 -15q82 0 123 137l111 -8 q-24 -120 -91.5 -186t-160.5 -66q-38 0 -71.5 15t-57 37t-45 43.5t-45.5 36.5t-49 15q-38 0 -70.5 -35.5t-52.5 -101.5z" />
<glyph unicode="&#xd2;" d="M84 506q0 161 45.5 315t126.5 276t204 196.5t267 74.5q203 0 318.5 -144t115.5 -386q0 -106 -20 -211.5t-57.5 -201.5t-94.5 -178.5t-126.5 -142.5t-157.5 -94.5t-185 -34.5q-203 0 -319.5 145t-116.5 386zM246 500q0 -183 73 -285t216 -102q106 0 195.5 65t147 170.5 t89.5 235t32 262.5q0 182 -71.5 283.5t-214.5 101.5q-106 0 -196 -65t-148 -170t-90.5 -234.5t-32.5 -261.5zM547 1679l112 103l250 -287l-88 -76z" />
<glyph unicode="&#xd3;" d="M84 506q0 161 45.5 315t126.5 276t204 196.5t267 74.5q203 0 318.5 -144t115.5 -386q0 -106 -20 -211.5t-57.5 -201.5t-94.5 -178.5t-126.5 -142.5t-157.5 -94.5t-185 -34.5q-203 0 -319.5 145t-116.5 386zM246 500q0 -183 73 -285t216 -102q106 0 195.5 65t147 170.5 t89.5 235t32 262.5q0 182 -71.5 283.5t-214.5 101.5q-106 0 -196 -65t-148 -170t-90.5 -234.5t-32.5 -261.5zM670 1530l338 237l75 -122l-352 -205z" />
<glyph unicode="&#xd4;" d="M84 506q0 161 45.5 315t126.5 276t204 196.5t267 74.5q203 0 318.5 -144t115.5 -386q0 -106 -20 -211.5t-57.5 -201.5t-94.5 -178.5t-126.5 -142.5t-157.5 -94.5t-185 -34.5q-203 0 -319.5 145t-116.5 386zM246 500q0 -183 73 -285t216 -102q106 0 195.5 65t147 170.5 t89.5 235t32 262.5q0 182 -71.5 283.5t-214.5 101.5q-106 0 -196 -65t-148 -170t-90.5 -234.5t-32.5 -261.5zM467 1489l266 244h178l181 -248l-78 -51l-197 198h-8l-274 -200z" />
<glyph unicode="&#xd5;" d="M84 506q0 161 45.5 315t126.5 276t204 196.5t267 74.5q203 0 318.5 -144t115.5 -386q0 -106 -20 -211.5t-57.5 -201.5t-94.5 -178.5t-126.5 -142.5t-157.5 -94.5t-185 -34.5q-203 0 -319.5 145t-116.5 386zM246 500q0 -183 73 -285t216 -102q106 0 195.5 65t147 170.5 t89.5 235t32 262.5q0 182 -71.5 283.5t-214.5 101.5q-106 0 -196 -65t-148 -170t-90.5 -234.5t-32.5 -261.5zM428 1470q25 119 92 185.5t160 66.5q39 0 72.5 -15t57 -37t44.5 -43.5t45 -36.5t49 -15q82 0 123 137l111 -8q-24 -120 -91.5 -186t-160.5 -66q-38 0 -71.5 15 t-57 37t-45 43.5t-45.5 36.5t-49 15q-38 0 -70.5 -35.5t-52.5 -101.5z" />
<glyph unicode="&#xd6;" d="M84 506q0 161 45.5 315t126.5 276t204 196.5t267 74.5q203 0 318.5 -144t115.5 -386q0 -106 -20 -211.5t-57.5 -201.5t-94.5 -178.5t-126.5 -142.5t-157.5 -94.5t-185 -34.5q-203 0 -319.5 145t-116.5 386zM246 500q0 -183 73 -285t216 -102q106 0 195.5 65t147 170.5 t89.5 235t32 262.5q0 182 -71.5 283.5t-214.5 101.5q-106 0 -196 -65t-148 -170t-90.5 -234.5t-32.5 -261.5zM518 1546q0 44 31 78.5t72 34.5q36 0 58.5 -22.5t22.5 -61.5q0 -44 -30 -77.5t-72 -33.5q-36 0 -59 22t-23 60zM899 1546q0 45 30 79t72 34q36 0 59 -22.5 t23 -61.5q0 -44 -30 -77.5t-72 -33.5q-37 0 -59.5 22t-22.5 60z" />
<glyph unicode="&#xd7;" d="M211 350l319 326l-319 325l86 89l317 -330l318 330l86 -89l-320 -325l320 -326l-86 -90l-318 330l-317 -330z" />
<glyph unicode="&#xd8;" d="M-29 12l172 199q-59 124 -59 295q0 161 45.5 315t126.5 276t204 196.5t267 74.5q190 0 305 -127l148 172l100 -82l-176 -203q57 -123 57 -290q0 -106 -20 -211.5t-57.5 -201.5t-94.5 -178.5t-126.5 -142.5t-157.5 -94.5t-185 -34.5q-187 0 -303 125l-147 -170zM242 500 q0 -82 16 -154l674 780q-76 105 -219 105q-106 0 -196.5 -65t-149.5 -170t-92 -234.5t-33 -261.5zM315 215q76 -102 220 -102q106 0 196.5 65t148.5 170.5t91 235t33 262.5q0 82 -15 147z" />
<glyph unicode="&#xd9;" d="M131 381q0 85 21 190l153 772h160l-154 -776q-22 -99 -22 -168q0 -138 64.5 -212t189.5 -74q263 0 342 403l164 827h155l-168 -843q-56 -280 -187 -402.5t-327 -122.5q-187 0 -289 108t-102 298zM547 1679l112 103l250 -287l-88 -76z" />
<glyph unicode="&#xda;" d="M131 381q0 85 21 190l153 772h160l-154 -776q-22 -99 -22 -168q0 -138 64.5 -212t189.5 -74q263 0 342 403l164 827h155l-168 -843q-56 -280 -187 -402.5t-327 -122.5q-187 0 -289 108t-102 298zM670 1530l338 237l75 -122l-352 -205z" />
<glyph unicode="&#xdb;" d="M131 381q0 85 21 190l153 772h160l-154 -776q-22 -99 -22 -168q0 -138 64.5 -212t189.5 -74q263 0 342 403l164 827h155l-168 -843q-56 -280 -187 -402.5t-327 -122.5q-187 0 -289 108t-102 298zM467 1489l266 244h178l181 -248l-78 -51l-197 198h-8l-274 -200z" />
<glyph unicode="&#xdc;" d="M131 381q0 85 21 190l153 772h160l-154 -776q-22 -99 -22 -168q0 -138 64.5 -212t189.5 -74q263 0 342 403l164 827h155l-168 -843q-56 -280 -187 -402.5t-327 -122.5q-187 0 -289 108t-102 298zM518 1546q0 44 31 78.5t72 34.5q36 0 58.5 -22.5t22.5 -61.5 q0 -44 -30 -77.5t-72 -33.5q-36 0 -59 22t-23 60zM899 1546q0 45 30 79t72 34q36 0 59 -22.5t23 -61.5q0 -44 -30 -77.5t-72 -33.5q-37 0 -59.5 22t-22.5 60z" />
<glyph unicode="&#xdd;" d="M223 1346h164l125 -414q58 -195 92 -334h8q100 166 215 334l287 414h168l-625 -893l-92 -453h-157l96 469zM643 1530l338 237l76 -122l-352 -205z" />
<glyph unicode="&#xde;" d="M90 0l268 1343h160l-45 -231h250q191 0 299 -81t108 -249q0 -121 -43.5 -213t-123 -148.5t-185.5 -85t-237 -28.5h-232l-59 -307h-160zM338 436h209q210 0 318 82.5t108 243.5q0 115 -74.5 168t-222.5 53h-232z" />
<glyph unicode="&#xdf;" d="M66 0l213 1061q39 195 158 308.5t298 113.5q140 0 227 -69.5t87 -201.5q0 -60 -20.5 -112t-51.5 -87t-67.5 -70t-67.5 -63t-51.5 -63.5t-20.5 -73.5q0 -35 23.5 -68.5t59.5 -59t77 -59t77 -68t59.5 -86.5t23.5 -113q0 -134 -102 -224t-265 -90q-172 0 -297 105l70 110 q56 -47 108.5 -69.5t118.5 -22.5q90 0 153.5 50t63.5 124q0 40 -18 75.5t-46.5 63t-63.5 53.5t-70 52.5t-63.5 54.5t-46.5 65.5t-18 80.5t15.5 82t40.5 69t54.5 58.5t59.5 57.5t55 59t40.5 69.5t15.5 83.5q0 74 -41 117t-125 43q-113 0 -192 -86t-111 -244l-203 -1026h-157z " />
<glyph unicode="&#xe0;" d="M106 356q0 176 73 328.5t199.5 244t274.5 91.5q103 0 183 -40.5t122 -109.5h9l39 125h127l-199 -995h-129l16 152h-8q-80 -82 -175.5 -129.5t-188.5 -47.5q-158 0 -250.5 99t-92.5 282zM268 381q0 -137 60.5 -206t167.5 -69q82 0 171.5 50t170.5 143l92 442 q-97 148 -256 148q-111 0 -205 -71.5t-147.5 -188t-53.5 -248.5zM557 1503l135 101l234 -363l-99 -74z" />
<glyph unicode="&#xe1;" d="M106 356q0 176 73 328.5t199.5 244t274.5 91.5q103 0 183 -40.5t122 -109.5h9l39 125h127l-199 -995h-129l16 152h-8q-80 -82 -175.5 -129.5t-188.5 -47.5q-158 0 -250.5 99t-92.5 282zM268 381q0 -137 60.5 -206t167.5 -69q82 0 171.5 50t170.5 143l92 442 q-97 148 -256 148q-111 0 -205 -71.5t-147.5 -188t-53.5 -248.5zM631 1278l344 313l96 -123l-369 -282z" />
<glyph unicode="&#xe2;" d="M106 356q0 176 73 328.5t199.5 244t274.5 91.5q103 0 183 -40.5t122 -109.5h9l39 125h127l-199 -995h-129l16 152h-8q-80 -82 -175.5 -129.5t-188.5 -47.5q-158 0 -250.5 99t-92.5 282zM268 381q0 -137 60.5 -206t167.5 -69q82 0 171.5 50t170.5 143l92 442 q-97 148 -256 148q-111 0 -205 -71.5t-147.5 -188t-53.5 -248.5zM442 1233l283 283h170l182 -289l-80 -64l-192 238h-8l-291 -238z" />
<glyph unicode="&#xe3;" d="M106 356q0 176 73 328.5t199.5 244t274.5 91.5q103 0 183 -40.5t122 -109.5h9l39 125h127l-199 -995h-129l16 152h-8q-80 -82 -175.5 -129.5t-188.5 -47.5q-158 0 -250.5 99t-92.5 282zM268 381q0 -137 60.5 -206t167.5 -69q82 0 171.5 50t170.5 143l92 442 q-97 148 -256 148q-111 0 -205 -71.5t-147.5 -188t-53.5 -248.5zM422 1198q26 129 87.5 204t158.5 75q39 0 71 -18t53.5 -43.5t41.5 -51t45 -43.5t53 -18q44 0 74.5 43.5t46.5 119.5l112 -8q-25 -126 -86.5 -201t-158.5 -75q-38 0 -70 18t-53.5 43.5t-41.5 51t-45.5 43.5 t-54.5 18q-87 0 -120 -164z" />
<glyph unicode="&#xe4;" d="M106 356q0 176 73 328.5t199.5 244t274.5 91.5q103 0 183 -40.5t122 -109.5h9l39 125h127l-199 -995h-129l16 152h-8q-80 -82 -175.5 -129.5t-188.5 -47.5q-158 0 -250.5 99t-92.5 282zM268 381q0 -137 60.5 -206t167.5 -69q82 0 171.5 50t170.5 143l92 442 q-97 148 -256 148q-111 0 -205 -71.5t-147.5 -188t-53.5 -248.5zM489 1296q0 51 33 87t82 36q39 0 63.5 -25t24.5 -67q0 -51 -32.5 -86t-81.5 -35q-39 0 -64 24t-25 66zM870 1296q0 51 33 87t82 36q39 0 63.5 -25t24.5 -67q0 -51 -33.5 -86t-81.5 -35q-39 0 -63.5 24 t-24.5 66z" />
<glyph unicode="&#xe5;" d="M106 356q0 176 73 328.5t199.5 244t274.5 91.5q103 0 183 -40.5t122 -109.5h9l39 125h127l-199 -995h-129l16 152h-8q-80 -82 -175.5 -129.5t-188.5 -47.5q-158 0 -250.5 99t-92.5 282zM268 381q0 -137 60.5 -206t167.5 -69q82 0 171.5 50t170.5 143l92 442 q-97 148 -256 148q-111 0 -205 -71.5t-147.5 -188t-53.5 -248.5zM567 1307q0 94 69 160.5t173 66.5q87 0 142 -44t55 -124q0 -94 -69.5 -160.5t-174.5 -66.5q-86 0 -140.5 44.5t-54.5 123.5zM674 1313q0 -45 26 -73t72 -28q52 0 89.5 44t37.5 104q0 44 -27 72t-73 28 q-51 0 -88 -43.5t-37 -103.5z" />
<glyph unicode="&#xe6;" d="M-45 199q0 178 147 279.5t447 148.5q29 120 -7.5 193t-133.5 73q-114 0 -246 -90l-58 98q167 119 340 119q91 0 151.5 -52t74.5 -139q65 95 148.5 143t174.5 48q79 0 133 -43.5t77.5 -112t23.5 -155.5q0 -129 -43 -250h-541q-8 -49 -8 -113q0 -113 49.5 -179.5 t144.5 -66.5q112 0 224 76l49 -102q-56 -43 -135 -71t-156 -28q-103 0 -172 49t-104 130q-170 -179 -355 -179q-106 0 -165.5 59.5t-59.5 164.5zM102 229q0 -63 32.5 -96t88.5 -33q63 0 142.5 43t142.5 115q-4 32 -4 51q0 111 18 211q-213 -40 -316.5 -108t-103.5 -183z M668 580h417q13 70 13 122q0 193 -135 193q-96 0 -175 -87.5t-120 -227.5z" />
<glyph unicode="&#xe7;" d="M137 414q0 132 50 247t133 192.5t192 122t225 44.5q122 0 219 -50t156 -128l-100 -90q-110 137 -295 137q-103 0 -200 -60.5t-159.5 -167t-62.5 -229.5q0 -159 88.5 -242.5t232.5 -83.5q159 0 318 138l63 -107q-80 -74 -185.5 -118t-211.5 -44l-68 -108q72 -18 99 -47.5 t24 -81.5q-7 -95 -105.5 -146.5t-264.5 -54.5l-2 80q235 9 241 111q2 39 -31 60t-110 28l111 168q-163 27 -260 137t-97 293z" />
<glyph unicode="&#xe8;" d="M129 406q0 131 46.5 246.5t124 195.5t181 126t215.5 46q179 0 279 -106.5t100 -276.5q0 -48 -8.5 -101t-17.5 -77h-762q-2 -14 -2 -45q0 -149 81 -231.5t218 -82.5q180 0 340 129l59 -106q-81 -65 -194 -106.5t-236 -41.5q-197 0 -310.5 112.5t-113.5 318.5zM311 582h611 q6 30 6 61q0 117 -64.5 184.5t-175.5 67.5q-118 0 -225 -86t-152 -227zM543 1503l135 101l233 -363l-98 -74z" />
<glyph unicode="&#xe9;" d="M129 406q0 131 46.5 246.5t124 195.5t181 126t215.5 46q179 0 279 -106.5t100 -276.5q0 -48 -8.5 -101t-17.5 -77h-762q-2 -14 -2 -45q0 -149 81 -231.5t218 -82.5q180 0 340 129l59 -106q-81 -65 -194 -106.5t-236 -41.5q-197 0 -310.5 112.5t-113.5 318.5zM311 582h611 q6 30 6 61q0 117 -64.5 184.5t-175.5 67.5q-118 0 -225 -86t-152 -227zM616 1278l345 313l96 -123l-369 -282z" />
<glyph unicode="&#xea;" d="M129 406q0 131 46.5 246.5t124 195.5t181 126t215.5 46q179 0 279 -106.5t100 -276.5q0 -48 -8.5 -101t-17.5 -77h-762q-2 -14 -2 -45q0 -149 81 -231.5t218 -82.5q180 0 340 129l59 -106q-81 -65 -194 -106.5t-236 -41.5q-197 0 -310.5 112.5t-113.5 318.5zM311 582h611 q6 30 6 61q0 117 -64.5 184.5t-175.5 67.5q-118 0 -225 -86t-152 -227zM428 1233l283 283h170l182 -289l-80 -64l-192 238h-9l-290 -238z" />
<glyph unicode="&#xeb;" d="M129 406q0 131 46.5 246.5t124 195.5t181 126t215.5 46q179 0 279 -106.5t100 -276.5q0 -48 -8.5 -101t-17.5 -77h-762q-2 -14 -2 -45q0 -149 81 -231.5t218 -82.5q180 0 340 129l59 -106q-81 -65 -194 -106.5t-236 -41.5q-197 0 -310.5 112.5t-113.5 318.5zM311 582h611 q6 30 6 61q0 117 -64.5 184.5t-175.5 67.5q-118 0 -225 -86t-152 -227zM475 1296q0 51 33 87t82 36q39 0 63.5 -25t24.5 -67q0 -51 -33 -86t-82 -35q-39 0 -63.5 24t-24.5 66zM856 1296q0 51 33 87t82 36q39 0 63.5 -25t24.5 -67q0 -51 -33.5 -86t-81.5 -35q-39 0 -63.5 24 t-24.5 66z" />
<glyph unicode="&#xec;" d="M213 868l27 127h520l-150 -676q-8 -50 -8 -65q0 -75 41.5 -111.5t112.5 -36.5q72 0 190 54l37 -119q-142 -66 -272 -66q-122 0 -195.5 65t-73.5 185q0 43 17 109l119 534h-365zM487 1503l136 101l233 -363l-98 -74z" />
<glyph unicode="&#xed;" d="M213 868l27 127h520l-150 -676q-8 -50 -8 -65q0 -75 41.5 -111.5t112.5 -36.5q72 0 190 54l37 -119q-142 -66 -272 -66q-122 0 -195.5 65t-73.5 185q0 43 17 109l119 534h-365zM561 1278l344 313l96 -123l-368 -282z" />
<glyph unicode="&#xee;" d="M213 868l27 127h520l-150 -676q-8 -50 -8 -65q0 -75 41.5 -111.5t112.5 -36.5q72 0 190 54l37 -119q-142 -66 -272 -66q-122 0 -195.5 65t-73.5 185q0 43 17 109l119 534h-365zM373 1233l282 283h170l183 -289l-80 -64l-193 238h-8l-291 -238z" />
<glyph unicode="&#xef;" d="M213 868l27 127h520l-150 -676q-8 -50 -8 -65q0 -75 41.5 -111.5t112.5 -36.5q72 0 190 54l37 -119q-142 -66 -272 -66q-122 0 -195.5 65t-73.5 185q0 43 17 109l119 534h-365zM420 1296q0 51 33 87t82 36q39 0 63.5 -25t24.5 -67q0 -51 -33 -86t-82 -35q-39 0 -63.5 24 t-24.5 66zM801 1296q0 52 32.5 87.5t81.5 35.5q39 0 64 -25t25 -67q0 -51 -33.5 -86t-81.5 -35q-39 0 -63.5 24t-24.5 66z" />
<glyph unicode="&#xf0;" d="M80 377q0 156 73.5 279.5t198 190t275.5 66.5q102 0 185 -40t136 -105q-17 239 -151 401l-310 -145l-53 102l279 129q-87 78 -199 134l70 114q153 -72 266 -182l305 141l51 -102l-276 -129q174 -225 174 -537q0 -331 -166.5 -525t-448.5 -194q-176 0 -292.5 108 t-116.5 294zM233 391q0 -131 75.5 -208t199.5 -77q192 0 308.5 144.5t131.5 382.5q-108 160 -301 160q-96 0 -175.5 -34t-131 -91t-79.5 -128.5t-28 -148.5z" />
<glyph unicode="&#xf1;" d="M74 0l198 995h127l-24 -202h8q227 227 446 227q128 0 192 -66t64 -182q0 -65 -18 -164l-123 -608h-158l119 592q19 81 19 139q0 74 -41 114t-117 40q-190 0 -408 -242l-129 -643h-155zM418 1198q26 129 87.5 204t158.5 75q39 0 71 -18t53.5 -43.5t41.5 -51t45 -43.5 t53 -18q44 0 74.5 43.5t46.5 119.5l112 -8q-25 -125 -87 -200.5t-159 -75.5q-38 0 -70 18t-53.5 43.5t-41.5 51t-45 43.5t-54 18q-44 0 -74.5 -43.5t-46.5 -120.5z" />
<glyph unicode="&#xf2;" d="M94 412q0 127 47 241t125.5 194t183.5 126.5t218 46.5q192 0 303.5 -120t111.5 -316q0 -127 -47 -241.5t-125 -194.5t-182.5 -126.5t-216.5 -46.5q-194 0 -306 120.5t-112 316.5zM254 422q0 -146 71.5 -231t196.5 -85q160 0 282 138t122 329q0 147 -72 231.5t-199 84.5 q-160 0 -280.5 -138t-120.5 -329zM526 1503l136 101l233 -363l-98 -74z" />
<glyph unicode="&#xf3;" d="M94 412q0 127 47 241t125.5 194t183.5 126.5t218 46.5q192 0 303.5 -120t111.5 -316q0 -127 -47 -241.5t-125 -194.5t-182.5 -126.5t-216.5 -46.5q-194 0 -306 120.5t-112 316.5zM254 422q0 -146 71.5 -231t196.5 -85q160 0 282 138t122 329q0 147 -72 231.5t-199 84.5 q-160 0 -280.5 -138t-120.5 -329zM600 1278l344 313l96 -123l-368 -282z" />
<glyph unicode="&#xf4;" d="M94 412q0 127 47 241t125.5 194t183.5 126.5t218 46.5q192 0 303.5 -120t111.5 -316q0 -127 -47 -241.5t-125 -194.5t-182.5 -126.5t-216.5 -46.5q-194 0 -306 120.5t-112 316.5zM254 422q0 -146 71.5 -231t196.5 -85q160 0 282 138t122 329q0 147 -72 231.5t-199 84.5 q-160 0 -280.5 -138t-120.5 -329zM412 1233l282 283h170l183 -289l-80 -64l-193 238h-8l-291 -238z" />
<glyph unicode="&#xf5;" d="M94 412q0 127 47 241t125.5 194t183.5 126.5t218 46.5q192 0 303.5 -120t111.5 -316q0 -127 -47 -241.5t-125 -194.5t-182.5 -126.5t-216.5 -46.5q-194 0 -306 120.5t-112 316.5zM254 422q0 -146 71.5 -231t196.5 -85q160 0 282 138t122 329q0 147 -72 231.5t-199 84.5 q-160 0 -280.5 -138t-120.5 -329zM391 1198q26 129 87.5 204t158.5 75q39 0 71 -18t53.5 -43.5t41.5 -51t45 -43.5t53 -18q44 0 74.5 43.5t46.5 119.5l113 -8q-25 -125 -87 -200.5t-159 -75.5q-38 0 -70 18t-53.5 43.5t-41.5 51t-45 43.5t-54 18q-44 0 -74.5 -43.5 t-46.5 -120.5z" />
<glyph unicode="&#xf6;" d="M94 412q0 127 47 241t125.5 194t183.5 126.5t218 46.5q192 0 303.5 -120t111.5 -316q0 -127 -47 -241.5t-125 -194.5t-182.5 -126.5t-216.5 -46.5q-194 0 -306 120.5t-112 316.5zM254 422q0 -146 71.5 -231t196.5 -85q160 0 282 138t122 329q0 147 -72 231.5t-199 84.5 q-160 0 -280.5 -138t-120.5 -329zM459 1296q0 52 32.5 87.5t81.5 35.5q39 0 64 -25t25 -67q0 -51 -33 -86t-82 -35q-39 0 -63.5 24t-24.5 66zM840 1296q0 52 32.5 87.5t81.5 35.5q39 0 63.5 -25t24.5 -67q0 -51 -33.5 -86t-80.5 -35q-39 0 -63.5 24t-24.5 66z" />
<glyph unicode="&#xf7;" d="M178 616v119h873v-119h-873zM508 307q0 45 30.5 75t75.5 30t76 -30t31 -75q0 -48 -30.5 -77t-76.5 -29t-76 29t-30 77zM508 1044q0 45 30.5 75t75.5 30t76 -30t31 -75q0 -48 -30.5 -77t-76.5 -29t-76 29t-30 77z" />
<glyph unicode="&#xf8;" d="M-2 29l152 143q-56 109 -56 240q0 127 47 241t125.5 194t183.5 126.5t218 46.5q171 0 280 -98l144 135l88 -90l-152 -144q55 -107 55 -239q0 -127 -47 -241.5t-125 -194.5t-182.5 -126.5t-216.5 -46.5q-173 0 -283 99l-143 -135zM248 416q0 -77 20 -133l576 542 q-71 68 -182 68q-112 0 -207.5 -64.5t-151 -174.5t-55.5 -238zM334 172q70 -70 182 -70t208 65t152 175t56 238q0 76 -21 135z" />
<glyph unicode="&#xf9;" d="M115 223q0 65 18 164l123 608h156l-119 -592q-19 -97 -19 -139q0 -74 41 -113.5t117 -39.5q192 0 406 241l129 643h157l-198 -995h-129l26 203h-8q-108 -105 -215 -166.5t-227 -61.5q-130 0 -194 65.5t-64 182.5zM522 1503l135 101l234 -363l-98 -74z" />
<glyph unicode="&#xfa;" d="M115 223q0 65 18 164l123 608h156l-119 -592q-19 -97 -19 -139q0 -74 41 -113.5t117 -39.5q192 0 406 241l129 643h157l-198 -995h-129l26 203h-8q-108 -105 -215 -166.5t-227 -61.5q-130 0 -194 65.5t-64 182.5zM596 1278l344 313l96 -123l-368 -282z" />
<glyph unicode="&#xfb;" d="M115 223q0 65 18 164l123 608h156l-119 -592q-19 -97 -19 -139q0 -74 41 -113.5t117 -39.5q192 0 406 241l129 643h157l-198 -995h-129l26 203h-8q-108 -105 -215 -166.5t-227 -61.5q-130 0 -194 65.5t-64 182.5zM408 1233l282 283h170l182 -289l-79 -64l-193 238h-8 l-291 -238z" />
<glyph unicode="&#xfc;" d="M115 223q0 65 18 164l123 608h156l-119 -592q-19 -97 -19 -139q0 -74 41 -113.5t117 -39.5q192 0 406 241l129 643h157l-198 -995h-129l26 203h-8q-108 -105 -215 -166.5t-227 -61.5q-130 0 -194 65.5t-64 182.5zM455 1296q0 52 32.5 87.5t81.5 35.5q39 0 63.5 -25 t24.5 -67q0 -51 -32.5 -86t-81.5 -35q-39 0 -63.5 24t-24.5 66zM836 1296q0 52 32.5 87.5t81.5 35.5q39 0 63.5 -25t24.5 -67q0 -51 -33.5 -86t-80.5 -35q-39 0 -63.5 24t-24.5 66z" />
<glyph unicode="&#xfd;" d="M-90 -391l49 112q58 -28 119 -28q90 0 151.5 45t135.5 160l61 98l-248 999h152l131 -557q39 -192 59 -303h8q69 133 168 303l334 557h164l-678 -1101q-105 -173 -203.5 -247.5t-244.5 -74.5q-97 0 -158 37zM582 1278l344 313l96 -123l-369 -282z" />
<glyph unicode="&#xfe;" d="M-10 -420l375 1878h157l-80 -389l-53 -219h6q82 75 177 122.5t186 47.5q160 0 251 -103t91 -292q0 -179 -68 -327t-194 -235.5t-285 -87.5q-92 0 -172 39.5t-129 104.5h-6l-37 -213l-64 -326h-155zM281 250q97 -144 262 -144q111 0 202 68t142 181.5t51 246.5 q0 142 -61.5 214.5t-169.5 72.5q-76 0 -166.5 -51.5t-169.5 -141.5z" />
<glyph unicode="&#xff;" d="M-90 -391l49 112q58 -28 119 -28q90 0 151.5 45t135.5 160l61 98l-248 999h152l131 -557q39 -192 59 -303h8q69 133 168 303l334 557h164l-678 -1101q-105 -173 -203.5 -247.5t-244.5 -74.5q-97 0 -158 37zM440 1296q0 51 33 87t82 36q39 0 63.5 -25t24.5 -67 q0 -51 -33 -86t-82 -35q-39 0 -63.5 24t-24.5 66zM821 1296q0 51 33 87t82 36q39 0 63.5 -25t24.5 -67q0 -51 -33.5 -86t-81.5 -35q-39 0 -63.5 24t-24.5 66z" />
<glyph unicode="&#x152;" d="M55 504q0 183 53 339.5t146.5 266t226 171.5t287.5 62h567l-26 -133h-408l-86 -436h309l-28 -135h-305l-105 -504h426l-29 -135h-553q-475 0 -475 504zM219 514q0 -188 74.5 -285.5t243.5 -97.5h8l217 1083h-17q-157 0 -278 -93.5t-184.5 -252t-63.5 -354.5z" />
<glyph unicode="&#x153;" d="M-18 354q0 144 38.5 270t102.5 212t149 135t177 49q193 0 229 -238q56 115 139.5 176.5t177.5 61.5q115 0 173.5 -81.5t58.5 -233.5q0 -99 -41 -246h-510q-8 -82 -8 -123q0 -236 186 -236q109 0 215 76l49 -104q-56 -42 -134 -69.5t-157 -27.5q-94 0 -162.5 53.5 t-89.5 151.5q-121 -205 -321 -205q-130 0 -201 100t-71 279zM127 360q0 -119 40 -187.5t116 -68.5q81 0 150.5 74.5t109 195t39.5 255.5q0 123 -37.5 192.5t-108.5 69.5q-86 0 -158.5 -81t-111.5 -202.5t-39 -247.5zM702 582h381q15 73 15 118q0 195 -129 195 q-83 0 -155 -88t-112 -225z" />
<glyph unicode="&#x178;" d="M223 1346h164l125 -414q58 -195 92 -334h8q100 166 215 334l287 414h168l-625 -893l-92 -453h-157l96 469zM492 1546q0 45 30.5 79t71.5 34q36 0 59 -22.5t23 -61.5q0 -44 -30.5 -77.5t-72.5 -33.5q-36 0 -58.5 22t-22.5 60zM872 1546q0 45 30.5 79t72.5 34 q36 0 59 -22.5t23 -61.5q0 -44 -30.5 -77.5t-72.5 -33.5q-37 0 -59.5 22t-22.5 60z" />
<glyph unicode="&#x2c6;" d="M412 1233l282 283h170l183 -289l-80 -64l-193 238h-8l-291 -238z" />
<glyph unicode="&#x2dc;" d="M391 1198q26 129 87.5 204t158.5 75q39 0 71 -18t53.5 -43.5t41.5 -51t45 -43.5t53 -18q44 0 74.5 43.5t46.5 119.5l113 -8q-25 -125 -87 -200.5t-159 -75.5q-38 0 -70 18t-53.5 43.5t-41.5 51t-45 43.5t-54 18q-44 0 -74.5 -43.5t-46.5 -120.5z" />
<glyph unicode="&#x2000;" horiz-adv-x="899" />
<glyph unicode="&#x2001;" horiz-adv-x="1798" />
<glyph unicode="&#x2002;" horiz-adv-x="899" />
<glyph unicode="&#x2003;" horiz-adv-x="1798" />
<glyph unicode="&#x2004;" horiz-adv-x="599" />
<glyph unicode="&#x2005;" horiz-adv-x="449" />
<glyph unicode="&#x2006;" horiz-adv-x="299" />
<glyph unicode="&#x2007;" horiz-adv-x="299" />
<glyph unicode="&#x2008;" horiz-adv-x="224" />
<glyph unicode="&#x2009;" horiz-adv-x="359" />
<glyph unicode="&#x200a;" horiz-adv-x="99" />
<glyph unicode="&#x2010;" d="M178 616v119h873v-119h-873z" />
<glyph unicode="&#x2011;" d="M178 616v119h873v-119h-873z" />
<glyph unicode="&#x2012;" d="M178 616v119h873v-119h-873z" />
<glyph unicode="&#x2013;" d="M127 449l29 135h901l-29 -135h-901z" />
<glyph unicode="&#x2014;" d="M-37 449l29 135h1229l-29 -135h-1229z" />
<glyph unicode="&#x2018;" d="M524 946q0 167 119.5 297.5t321.5 186.5l24 -91q-121 -37 -199.5 -109t-101.5 -169q21 8 53 8q48 0 78.5 -34t30.5 -91q0 -75 -50.5 -127.5t-121.5 -52.5q-69 0 -111.5 46t-42.5 136z" />
<glyph unicode="&#x2019;" d="M453 856q120 36 197 108.5t102 170.5q-33 -11 -56 -11q-48 0 -78 34.5t-30 92.5q0 74 51 127.5t121 53.5q69 0 111 -47t42 -136q0 -169 -117.5 -299t-318.5 -186z" />
<glyph unicode="&#x201a;" d="M309 -324q120 36 197 108.5t102 170.5q-30 -10 -55 -10q-48 0 -78.5 34.5t-30.5 92.5q0 74 51 127t121 53q69 0 111.5 -46.5t42.5 -135.5q0 -169 -117.5 -299.5t-318.5 -186.5z" />
<glyph unicode="&#x201c;" d="M289 946q0 167 119.5 297.5t320.5 186.5l25 -91q-121 -37 -199.5 -109t-101.5 -169q21 8 53 8q48 0 78 -33.5t30 -91.5q0 -75 -50.5 -127.5t-121.5 -52.5q-69 0 -111 46t-42 136zM760 946q0 167 119.5 297.5t320.5 186.5l25 -91q-121 -37 -199.5 -109t-101.5 -169 q21 8 53 8q48 0 78 -33.5t30 -91.5q0 -75 -50.5 -127.5t-121.5 -52.5q-69 0 -111 46t-42 136z" />
<glyph unicode="&#x201d;" d="M217 856q120 36 197 108.5t102 170.5q-33 -11 -55 -11q-48 0 -78.5 34.5t-30.5 92.5q0 74 51 127.5t121 53.5q69 0 111.5 -47t42.5 -136q0 -169 -117.5 -299t-318.5 -186zM688 856q120 36 197 108.5t102 170.5q-33 -11 -55 -11q-48 0 -78.5 34.5t-30.5 92.5 q0 74 51 127.5t121 53.5q69 0 111.5 -47t42.5 -136q0 -169 -117.5 -299t-318.5 -186z" />
<glyph unicode="&#x201e;" d="M217 -324q120 36 197 108.5t102 170.5q-30 -10 -55 -10q-48 0 -78.5 34.5t-30.5 92.5q0 74 51 127t121 53q69 0 111.5 -46.5t42.5 -135.5q0 -169 -117.5 -299.5t-318.5 -186.5zM688 -324q120 36 197 108.5t102 170.5q-30 -10 -55 -10q-48 0 -78.5 34.5t-30.5 92.5 q0 74 51 127t121 53q69 0 111.5 -46.5t42.5 -135.5q0 -169 -117.5 -299.5t-318.5 -186.5z" />
<glyph unicode="&#x2022;" d="M291 485q0 155 106 252t254 97q108 0 179 -67.5t71 -178.5q0 -155 -105 -251.5t-253 -96.5q-107 0 -179.5 67.5t-72.5 177.5z" />
<glyph unicode="&#x2026;" d="M-27 96q0 75 52 126.5t120 51.5q50 0 79.5 -32t29.5 -88q0 -77 -48 -128t-122 -51q-52 0 -81.5 33t-29.5 88zM379 96q0 75 51.5 126.5t120.5 51.5q50 0 78 -31.5t28 -88.5q0 -77 -47.5 -128t-120.5 -51q-53 0 -81.5 33t-28.5 88zM782 96q0 76 51.5 127t120.5 51 q50 0 79.5 -32t29.5 -88q0 -77 -48.5 -128t-121.5 -51q-52 0 -81.5 33t-29.5 88z" />
<glyph unicode="&#x202f;" horiz-adv-x="359" />
<glyph unicode="&#x2039;" d="M379 455l24 131l377 334l62 -70l-310 -344l177 -338l-86 -62z" />
<glyph unicode="&#x203a;" d="M311 178l310 344l-177 338l88 62l242 -349l-24 -131l-377 -333z" />
<glyph unicode="&#x205f;" horiz-adv-x="449" />
<glyph unicode="&#x20ac;" d="M70 489l18 80l141 11q6 74 21 141h-133l18 80l137 8q73 244 243 383t386 139q205 0 332 -196l-103 -82q-50 77 -106.5 114t-138.5 37q-141 0 -262.5 -106.5t-184.5 -286.5h566l-19 -90h-573q-18 -82 -23 -141h485l-20 -91h-469q0 -180 70.5 -279t203.5 -99q166 0 330 161 l80 -100q-197 -197 -442 -197q-186 0 -294 135t-108 369v10h-155z" />
<glyph unicode="&#x2122;" d="M145 1290l23 94h498l-21 -94h-192l-109 -538h-108l106 538h-197zM629 752l127 632h135l45 -237l22 -166h9l90 166l137 237h137l-125 -632h-104l57 288l55 213h-8l-225 -391h-84l-70 391h-8l-28 -213l-58 -288h-104z" />
<glyph unicode="&#x25fc;" horiz-adv-x="993" d="M0 0v993h993v-993h-993z" />
<glyph unicode="&#xfb01;" d="M139 0l172 868h-127l23 117l133 10l33 164q63 324 315 324q108 0 189 -49l-56 -113q-60 35 -123 35q-130 0 -170 -193l-32 -168h221l-27 -127h-223l-172 -868h-156zM719 0l201 995h155l-198 -995h-158zM938 1315q0 58 42 99.5t99 41.5q55 0 87 -28t32 -80q0 -60 -42 -101 t-101 -41q-51 0 -84 29t-33 80z" />
<glyph unicode="&#xfb02;" d="M139 0l172 868h-127l23 117l133 10l33 164q63 324 315 324q108 0 189 -49l-56 -113q-60 35 -123 35q-130 0 -170 -193l-32 -168h221l-27 -127h-223l-172 -868h-156zM731 104q0 34 12 86l252 1268h158l-254 -1276q-4 -20 -4 -39q0 -37 33 -37q21 0 41 7l2 -121 q-49 -17 -107 -17q-65 0 -99 33.5t-34 95.5z" />
</font>
</defs>
</svg>
