<?xml version="1.0" encoding="UTF-8" standalone="no"?>
<!-- Generator: Adobe Illustrator 18.0.0, SVG Export Plug-In . SVG Version: 6.00 Build 0)  -->

<svg
   xmlns:sketch="http://www.bohemiancoding.com/sketch/ns"
   xmlns:dc="http://purl.org/dc/elements/1.1/"
   xmlns:cc="http://creativecommons.org/ns#"
   xmlns:rdf="http://www.w3.org/1999/02/22-rdf-syntax-ns#"
   xmlns:svg="http://www.w3.org/2000/svg"
   xmlns="http://www.w3.org/2000/svg"
   xmlns:sodipodi="http://sodipodi.sourceforge.net/DTD/sodipodi-0.dtd"
   xmlns:inkscape="http://www.inkscape.org/namespaces/inkscape"
   version="1.1"
   id="Layer_1"
   x="0px"
   y="0px"
   width="32px"
   height="64px"
   viewBox="0 0 32 64"
   enable-background="new 0 0 32 64"
   xml:space="preserve"
   inkscape:version="0.91 r13725"
   sodipodi:docname="articles-1.svg"><metadata
   id="metadata4719"><rdf:RDF><cc:Work
       rdf:about=""><dc:format>image/svg+xml</dc:format><dc:type
         rdf:resource="http://purl.org/dc/dcmitype/StillImage" /><dc:title>icon-5</dc:title></cc:Work></rdf:RDF></metadata><defs
   id="defs4717" /><sodipodi:namedview
   pagecolor="#ffffff"
   bordercolor="#666666"
   borderopacity="1"
   objecttolerance="10"
   gridtolerance="10"
   guidetolerance="10"
   inkscape:pageopacity="0"
   inkscape:pageshadow="2"
   inkscape:window-width="825"
   inkscape:window-height="480"
   id="namedview4715"
   showgrid="false"
   inkscape:zoom="3.6875"
   inkscape:cx="16"
   inkscape:cy="32"
   inkscape:window-x="94"
   inkscape:window-y="436"
   inkscape:window-maximized="0"
   inkscape:current-layer="Layer_1" />
<title
   id="title4709">icon-5</title>
<desc
   id="desc4711">Created with Sketch.</desc>
<path
   id="Shape"
   sketch:type="MSShapeGroup"
   fill="#505977"
   d="M31.7,4.8L19.4,17c-0.6,0.6-1.4,1-2.2,1c-0.5,0-1-0.1-1.4-0.3l-1,1  c-0.2,0.2-0.5,0.3-0.7,0.3c-0.3,0-0.5-0.1-0.7-0.3c-0.4-0.4-0.4-1,0-1.4l1-1c-0.2-0.4-0.3-0.9-0.3-1.4c0-0.8,0.3-1.6,0.9-2.2l0,0  L27.3,0.3c0.4-0.4,1-0.4,1.4,0l3,3C31.9,3.5,32,3.8,32,4.1C32,4.3,31.9,4.6,31.7,4.8L31.7,4.8z M28,2.5L16.4,14  c-0.2,0.2-0.3,0.5-0.3,0.8s0.1,0.6,0.3,0.8l0,0c0.4,0.4,1.2,0.4,1.6,0l0,0L29.6,4.1L28,2.5L28,2.5z M18.1,4H5C3.4,4,2,5.4,2,7v19.9  C2,28.6,3.4,30,5,30h20c1.7,0,3-1.4,3-3.1V13.8c0-0.6,0.5-1,1-1c0.6,0,1,0.4,1,1V27c0,2.8-2.3,5-5,5H5c-2.8,0-5-2.2-5-5V7  c0-2.8,2.3-5,5-5h13.1c0.6,0,1,0.4,1,1S18.7,4,18.1,4L18.1,4z"
   style="fill:#43d6de;fill-opacity:1" />
<path
   id="Shape_1_"
   sketch:type="MSShapeGroup"
   fill="#FFFFFF"
   d="M31.7,36.8L19.4,49c-0.6,0.6-1.4,1-2.2,1c-0.5,0-1-0.1-1.4-0.3  l-1,1c-0.2,0.2-0.5,0.3-0.7,0.3c-0.3,0-0.5-0.1-0.7-0.3c-0.4-0.4-0.4-1,0-1.4l1-1c-0.2-0.4-0.3-0.9-0.3-1.4c0-0.8,0.3-1.6,0.9-2.2  l0,0l12.3-12.4c0.4-0.4,1-0.4,1.4,0l3,3c0.2,0.2,0.3,0.5,0.3,0.8C32,36.3,31.9,36.6,31.7,36.8L31.7,36.8z M28,34.5L16.4,46  c-0.2,0.2-0.3,0.5-0.3,0.8s0.1,0.6,0.3,0.8l0,0c0.4,0.4,1.2,0.4,1.6,0l0,0l11.6-11.5L28,34.5L28,34.5z M18.1,36H5c-1.6,0-3,1.4-3,3  v19.9C2,60.6,3.4,62,5,62h20c1.7,0,3-1.4,3-3.1V45.8c0-0.6,0.5-1,1-1c0.6,0,1,0.4,1,1V59c0,2.8-2.3,5-5,5H5c-2.8,0-5-2.2-5-5V39  c0-2.8,2.3-5,5-5h13.1c0.6,0,1,0.4,1,1S18.7,36,18.1,36L18.1,36z" />
</svg>