<?xml version="1.0" encoding="UTF-8" standalone="no"?>
<!-- Generator: Adobe Illustrator 18.0.0, SVG Export Plug-In . SVG Version: 6.00 Build 0)  -->

<svg
   xmlns:dc="http://purl.org/dc/elements/1.1/"
   xmlns:cc="http://creativecommons.org/ns#"
   xmlns:rdf="http://www.w3.org/1999/02/22-rdf-syntax-ns#"
   xmlns:svg="http://www.w3.org/2000/svg"
   xmlns="http://www.w3.org/2000/svg"
   xmlns:sodipodi="http://sodipodi.sourceforge.net/DTD/sodipodi-0.dtd"
   xmlns:inkscape="http://www.inkscape.org/namespaces/inkscape"
   version="1.1"
   id="Layer_1"
   x="0px"
   y="0px"
   width="32px"
   height="64px"
   viewBox="0 0 32 64"
   enable-background="new 0 0 32 64"
   xml:space="preserve"
   inkscape:version="0.91 r13725"
   sodipodi:docname="contact-3.svg"><metadata
   id="metadata4719"><rdf:RDF><cc:Work
       rdf:about=""><dc:format>image/svg+xml</dc:format><dc:type
         rdf:resource="http://purl.org/dc/dcmitype/StillImage" /><dc:title>icon-5</dc:title></cc:Work></rdf:RDF></metadata><defs
   id="defs4717" /><sodipodi:namedview
   pagecolor="#ffffff"
   bordercolor="#666666"
   borderopacity="1"
   objecttolerance="10"
   gridtolerance="10"
   guidetolerance="10"
   inkscape:pageopacity="0"
   inkscape:pageshadow="2"
   inkscape:window-width="927"
   inkscape:window-height="731"
   id="namedview4715"
   showgrid="false"
   inkscape:zoom="8.6875"
   inkscape:cx="16"
   inkscape:cy="32"
   inkscape:window-x="447"
   inkscape:window-y="214"
   inkscape:window-maximized="0"
   inkscape:current-layer="Layer_1" />
<title
   id="title4709">icon-5</title>
<desc
   id="desc4711">Created with Sketch.</desc>


<path
   d="m 16.08121,0.12218009 c -8.8224211,0 -16.00000009,7.17747001 -16.00000009,15.99975991 0,8.82261 7.17757899,16.00024 16.00000009,16.00024 0.6602,0 1.195148,-0.5351 1.195148,-1.19513 0,-0.66003 -0.534948,-1.19513 -1.195148,-1.19513 -7.5044121,0 -13.6097051,-6.10536 -13.6097051,-13.60998 0,-7.5042999 6.105293,-13.6094999 13.6097051,-13.6094999 7.504412,0 13.609705,6.1052 13.609705,13.6094999 l 0,3.70172 c 0,1.38189 -1.124395,2.5061 -2.506464,2.5061 -1.38191,0 -2.506145,-1.12421 -2.506145,-2.5061 l 0,-3.70172 c 0,-4.74068 -3.856662,-8.5974399 -8.597255,-8.5974399 -4.740753,0 -8.5975751,3.8567599 -8.5975751,8.5974399 0,4.741 3.8568221,8.59808 8.5975751,8.59808 2.631077,0 4.988546,-1.18923 6.566779,-3.05714 0.728562,1.79078 2.487022,3.05714 4.536621,3.05714 2.699918,0 4.896759,-2.19649 4.896759,-4.89636 l 0,-3.70172 c 0,-8.8222899 -7.177579,-15.99975991 -16,-15.99975991 z m 0,22.20757991 c -3.422744,0 -6.2072791,-2.78481 -6.2072791,-6.20782 0,-3.42269 2.7846951,-6.2071799 6.2072791,-6.2071799 3.422584,0 6.20696,2.7844899 6.20696,6.2071799 0,3.42301 -2.784376,6.20782 -6.20696,6.20782 z"
   id="path3"
   inkscape:connector-curvature="0"
   style="fill:#43d6de;fill-opacity:1" /><path
   d="m 16.101695,32.007072 c -8.8224211,0 -16.0000001,7.17747 -16.0000001,15.99976 0,8.82261 7.177579,16.00024 16.0000001,16.00024 0.6602,0 1.195148,-0.5351 1.195148,-1.19513 0,-0.66003 -0.534948,-1.19513 -1.195148,-1.19513 -7.5044121,0 -13.6097051,-6.10536 -13.6097051,-13.60998 0,-7.5043 6.105293,-13.6095 13.6097051,-13.6095 7.504412,0 13.609705,6.1052 13.609705,13.6095 l 0,3.70172 c 0,1.38189 -1.124395,2.5061 -2.506464,2.5061 -1.38191,0 -2.506145,-1.12421 -2.506145,-2.5061 l 0,-3.70172 c 0,-4.74068 -3.856662,-8.59744 -8.597255,-8.59744 -4.740753,0 -8.5975751,3.85676 -8.5975751,8.59744 0,4.741 3.8568221,8.59808 8.5975751,8.59808 2.631077,0 4.988546,-1.18923 6.566779,-3.05714 0.728562,1.79078 2.487022,3.05714 4.536621,3.05714 2.699918,0 4.896759,-2.19649 4.896759,-4.89636 l 0,-3.70172 c 0,-8.82229 -7.177579,-15.99976 -16,-15.99976 z m 0,22.20758 c -3.422744,0 -6.2072791,-2.78481 -6.2072791,-6.20782 0,-3.42269 2.7846951,-6.20718 6.2072791,-6.20718 3.422584,0 6.20696,2.78449 6.20696,6.20718 0,3.42301 -2.784376,6.20782 -6.20696,6.20782 z"
   id="path3-5"
   inkscape:connector-curvature="0"
   style="fill:#ffffff;fill-opacity:1" /></svg>