<?xml version="1.0" encoding="UTF-8" standalone="no"?>
<!-- Generator: Adobe Illustrator 18.0.0, SVG Export Plug-In . SVG Version: 6.00 Build 0)  -->

<svg
   xmlns:sketch="http://www.bohemiancoding.com/sketch/ns"
   xmlns:dc="http://purl.org/dc/elements/1.1/"
   xmlns:cc="http://creativecommons.org/ns#"
   xmlns:rdf="http://www.w3.org/1999/02/22-rdf-syntax-ns#"
   xmlns:svg="http://www.w3.org/2000/svg"
   xmlns="http://www.w3.org/2000/svg"
   xmlns:sodipodi="http://sodipodi.sourceforge.net/DTD/sodipodi-0.dtd"
   xmlns:inkscape="http://www.inkscape.org/namespaces/inkscape"
   version="1.1"
   id="Layer_1"
   x="0px"
   y="0px"
   width="32"
   height="64"
   viewBox="0 0 32 64"
   enable-background="new 0 0 32 62"
   xml:space="preserve"
   inkscape:version="0.91 r13725"
   sodipodi:docname="portfolio-1.svg"><metadata
   id="metadata13"><rdf:RDF><cc:Work
       rdf:about=""><dc:format>image/svg+xml</dc:format><dc:type
         rdf:resource="http://purl.org/dc/dcmitype/StillImage" /><dc:title>icon-2</dc:title></cc:Work></rdf:RDF></metadata><defs
   id="defs11" /><sodipodi:namedview
   pagecolor="#ffffff"
   bordercolor="#666666"
   borderopacity="1"
   objecttolerance="10"
   gridtolerance="10"
   guidetolerance="10"
   inkscape:pageopacity="0"
   inkscape:pageshadow="2"
   inkscape:window-width="775"
   inkscape:window-height="525"
   id="namedview9"
   showgrid="false"
   inkscape:zoom="3.8064516"
   inkscape:cx="22.69209"
   inkscape:cy="17.693073"
   inkscape:window-x="370"
   inkscape:window-y="386"
   inkscape:window-maximized="0"
   inkscape:current-layer="Layer_1" />
<title
   id="title3">icon-2</title>
<desc
   id="desc5">Created with Sketch.</desc>
<path
   id="Shape"
   sketch:type="MSShapeGroup"
   d="M 31,32 1,32 C 0.4,32 0,31.573333 0,30.933333 L 0,6.4 C 0,5.76 0.4,5.3333333 1,5.3333333 l 9.1,0 C 10.6,2.3466667 13,0 16,0 c 3,0 5.4,2.3466667 5.9,5.3333333 l 9.1,0 c 0.6,0 1,0.4266667 1,1.0666667 l 0,24.533333 C 32,31.573333 31.6,32 31,32 l 0,0 z M 16,2.1333333 c -1.9,0 -3.4,1.3866667 -3.9,3.2 l 7.7,0 c -0.4,-1.8133333 -1.9,-3.2 -3.8,-3.2 l 0,0 z m 14,5.3333334 -28,0 0,6.4000003 28,0 0,-6.4000003 0,0 z M 14.3,16 c 0.3,0.64 1,1.066667 1.7,1.066667 0.7,0 1.4,-0.426667 1.7,-1.066667 l -3.4,0 0,0 z M 30,16 19.9,16 c -0.4,1.813333 -2,3.2 -3.9,3.2 -1.9,0 -3.4,-1.386667 -3.9,-3.2 L 2,16 l 0,13.866667 28,0 L 30,16 l 0,0 z"
   style="fill:#43d6de;fill-opacity:1"
   inkscape:connector-curvature="0" />
<path
   id="Shape_1_"
   sketch:type="MSShapeGroup"
   d="M 31,64 1,64 C 0.4,64 0,63.573334 0,62.933334 L 0,38.4 c 0,-0.64 0.4,-1.066667 1,-1.066667 l 9.1,0 C 10.6,34.346667 13,32 16,32 c 3,0 5.4,2.346667 5.9,5.333333 l 9.1,0 c 0.6,0 1,0.426667 1,1.066667 l 0,24.533334 C 32,63.573334 31.6,64 31,64 l 0,0 z M 16,34.133333 c -1.9,0 -3.4,1.386667 -3.9,3.2 l 7.7,0 c -0.4,-1.813333 -1.9,-3.2 -3.8,-3.2 l 0,0 z m 14,5.333333 -28,0 0,6.400001 28,0 0,-6.400001 0,0 z m -15.7,8.533333 c 0.3,0.640001 1,1.066668 1.7,1.066668 0.7,0 1.4,-0.426667 1.7,-1.066668 l -3.4,0 0,0 z m 15.7,0 -10.1,0 C 19.5,49.813333 17.9,51.2 16,51.2 c -1.9,0 -3.4,-1.386667 -3.9,-3.200001 l -10.1,0 0,13.866668 28,0 0,-13.866668 0,0 z"
   inkscape:connector-curvature="0"
   style="fill:#ffffff" />
</svg>